<svg width="80" height="130" viewBox="0 0 80 130" fill="none" xmlns="http://www.w3.org/2000/svg">
<g filter="url(#filter0_d_29_1819)">
<path d="M28.4088 86.5938V85.4874C28.4866 78.2663 29.2068 72.5206 30.5693 68.2501C31.9708 63.9796 33.9562 60.5244 36.5255 57.8845C39.0949 55.2446 42.1898 52.8376 45.8102 50.6635C48.146 49.1882 50.2482 47.5383 52.1168 45.7136C53.9854 43.8889 55.4647 41.7925 56.5547 39.4243C57.6448 37.0562 58.1898 34.4356 58.1898 31.5628C58.1898 28.1076 57.3723 25.1182 55.7372 22.5948C54.1022 20.0713 51.9221 18.1301 49.1971 16.7714C46.511 15.3737 43.5134 14.6749 40.2044 14.6749C37.2068 14.6749 34.3455 15.2961 31.6204 16.5384C28.8954 17.7808 26.6375 19.7219 24.8467 22.3618C23.056 24.9629 22.0243 28.3211 21.7518 32.4363H4C4.27251 25.4482 6.0438 19.5472 9.31387 14.7332C12.5839 9.88035 16.9051 6.21162 22.2774 3.72697C27.6886 1.24232 33.6642 0 40.2044 0C47.3674 0 53.635 1.33938 59.0073 4.01814C64.3796 6.65808 68.545 10.3656 71.5037 15.1408C74.5012 19.8772 76 25.4094 76 31.7375C76 36.0856 75.3187 40.0067 73.9562 43.5007C72.5937 46.9559 70.6472 50.0423 68.1168 52.7599C65.6253 55.4775 62.6277 57.8845 59.1241 59.9809C55.8151 62.0385 53.129 64.1738 51.0657 66.3866C49.0414 68.5995 47.562 71.22 46.6277 74.2482C45.6934 77.2764 45.1873 81.0228 45.1095 85.4874V86.5938H28.4088ZM37.2263 122C34.0341 122 31.2895 120.874 28.9927 118.622C26.6959 116.332 25.5474 113.576 25.5474 110.353C25.5474 107.17 26.6959 104.452 28.9927 102.2C31.2895 99.91 34.0341 98.7647 37.2263 98.7647C40.3796 98.7647 43.1046 99.91 45.4015 102.2C47.7372 104.452 48.9051 107.17 48.9051 110.353C48.9051 112.488 48.3601 114.449 47.2701 116.235C46.219 117.982 44.8175 119.379 43.0657 120.428C41.3139 121.476 39.3674 122 37.2263 122Z" fill="#FF693B"/>
</g>
<defs>
<filter id="filter0_d_29_1819" x="0" y="0" width="80" height="130" filterUnits="userSpaceOnUse" color-interpolation-filters="sRGB">
<feFlood flood-opacity="0" result="BackgroundImageFix"/>
<feColorMatrix in="SourceAlpha" type="matrix" values="0 0 0 0 0 0 0 0 0 0 0 0 0 0 0 0 0 0 127 0" result="hardAlpha"/>
<feOffset dy="4"/>
<feGaussianBlur stdDeviation="2"/>
<feComposite in2="hardAlpha" operator="out"/>
<feColorMatrix type="matrix" values="0 0 0 0 0 0 0 0 0 0 0 0 0 0 0 0 0 0 0.25 0"/>
<feBlend mode="normal" in2="BackgroundImageFix" result="effect1_dropShadow_29_1819"/>
<feBlend mode="normal" in="SourceGraphic" in2="effect1_dropShadow_29_1819" result="shape"/>
</filter>
</defs>
</svg>
