<svg width="16" height="16" viewBox="0 0 16 16" fill="none" xmlns="http://www.w3.org/2000/svg">
<path d="M6.66681 4.08341C7.08102 4.08341 7.41681 3.74763 7.41681 3.33341C7.41681 2.9192 7.08102 2.58341 6.66681 2.58341V4.08341ZM13.4167 9.33342C13.4167 8.9192 13.0809 8.58342 12.6667 8.58342C12.2525 8.58342 11.9167 8.9192 11.9167 9.33342H13.4167ZM11.9385 12.5214L11.598 11.8531L11.9385 12.5214ZM12.5215 11.9388L11.8532 11.5983L12.5215 11.9388ZM3.47867 11.9388L2.81041 12.2793H2.81041L3.47867 11.9388ZM4.06121 12.5214L4.4017 11.8531L4.06121 12.5214ZM4.06121 3.47874L4.4017 4.14699L4.06121 3.47874ZM3.47867 4.06144L4.14692 4.40193L3.47867 4.06144ZM12.5833 6.00008C12.5833 6.41429 12.9191 6.75008 13.3333 6.75008C13.7476 6.75008 14.0833 6.41429 14.0833 6.00008H12.5833ZM13.3333 2.66675H14.0833C14.0833 2.25253 13.7476 1.91675 13.3333 1.91675V2.66675ZM10 1.91675C9.5858 1.91675 9.25001 2.25253 9.25001 2.66675C9.25001 3.08096 9.5858 3.41675 10 3.41675V1.91675ZM8.13635 6.80308C7.84345 7.09598 7.84345 7.57085 8.13635 7.86374C8.42924 8.15664 8.90411 8.15664 9.19701 7.86374L8.13635 6.80308ZM6.66681 2.58341H5.46681V4.08341H6.66681V2.58341ZM2.58334 5.46672V10.5334H4.08334V5.46672H2.58334ZM5.46681 13.4167H10.5335V11.9167H5.46681V13.4167ZM13.4167 10.5334V9.33342H11.9167V10.5334H13.4167ZM10.5335 13.4167C10.8945 13.4167 11.2103 13.4173 11.4702 13.3961C11.7389 13.3741 12.0131 13.3251 12.279 13.1897L11.598 11.8531C11.5787 11.863 11.5238 11.8867 11.348 11.9011C11.1633 11.9162 10.9192 11.9167 10.5335 11.9167V13.4167ZM11.9167 10.5334C11.9167 10.9192 11.9161 11.1634 11.9011 11.3482C11.8867 11.5242 11.863 11.5791 11.8532 11.5983L13.1897 12.2793C13.3253 12.0132 13.3742 11.7388 13.3961 11.4701C13.4173 11.2102 13.4167 10.8943 13.4167 10.5334H11.9167ZM12.279 13.1897C12.6706 12.9901 12.9898 12.6717 13.1897 12.2793L11.8532 11.5983C11.7975 11.7076 11.7082 11.797 11.598 11.8531L12.279 13.1897ZM2.58334 10.5334C2.58334 10.8944 2.58276 11.2102 2.604 11.4702C2.62595 11.7389 2.6749 12.0133 2.81041 12.2793L4.14692 11.5983C4.13712 11.579 4.1134 11.5241 4.09902 11.3481C4.08393 11.1633 4.08334 10.9191 4.08334 10.5334H2.58334ZM5.46681 11.9167C5.08108 11.9167 4.8368 11.9162 4.65201 11.9011C4.47593 11.8867 4.42093 11.8629 4.4017 11.8531L3.72072 13.1897C3.98671 13.3252 4.26113 13.3741 4.52987 13.3961C4.78989 13.4173 5.1058 13.4167 5.46681 13.4167V11.9167ZM2.81041 12.2793C3.01009 12.6712 3.3286 12.9899 3.72072 13.1897L4.4017 11.8531C4.29205 11.7973 4.20291 11.7081 4.14692 11.5983L2.81041 12.2793ZM5.46681 2.58341C5.10581 2.58341 4.7899 2.58283 4.52988 2.60407C4.26116 2.62602 3.98672 2.67495 3.72072 2.81048L4.4017 4.14699C4.42091 4.1372 4.47591 4.11347 4.65199 4.09909C4.83679 4.084 5.08107 4.08341 5.46681 4.08341V2.58341ZM4.08334 5.46672C4.08334 5.08097 4.08393 4.83678 4.09902 4.65209C4.11339 4.47615 4.13711 4.4212 4.14692 4.40193L2.81041 3.72095C2.6749 3.9869 2.62596 4.26122 2.604 4.52993C2.58276 4.78988 2.58334 5.10572 2.58334 5.46672H4.08334ZM3.72072 2.81048C3.32852 3.01032 3.01005 3.32914 2.81041 3.72095L4.14692 4.40193C4.20295 4.29198 4.29213 4.20282 4.4017 4.14699L3.72072 2.81048ZM14.0833 6.00008V2.66675H12.5833V6.00008H14.0833ZM13.3333 1.91675H10V3.41675H13.3333V1.91675ZM9.19701 7.86374L13.8637 3.19708L12.803 2.13642L8.13635 6.80308L9.19701 7.86374Z" fill="#4D5AE8"/>
</svg>
