<svg width="14" height="13" viewBox="0 0 14 13" fill="none" xmlns="http://www.w3.org/2000/svg">
<path d="M5.71837 0.413378C6.23456 -0.137687 7.10906 -0.137687 7.62524 0.413378C7.96716 0.778389 8.48745 0.916161 8.9652 0.768188L9.01178 0.753761C9.71903 0.534702 10.4629 0.965171 10.6253 1.68754C10.734 2.17118 11.1144 2.54722 11.5993 2.65036L11.6503 2.66121C12.3699 2.81428 12.7978 3.55756 12.5689 4.25673C12.4154 4.72557 12.556 5.24158 12.9252 5.56877C13.4831 6.06319 13.4831 6.93691 12.9252 7.43133C12.556 7.75852 12.4154 8.27453 12.5689 8.74337C12.7978 9.44254 12.3699 10.1858 11.6503 10.3389L11.5993 10.3497C11.1144 10.4529 10.734 10.8289 10.6253 11.3126C10.4629 12.0349 9.71903 12.4654 9.01178 12.2463L8.9652 12.2319C8.48745 12.0839 7.96716 12.2217 7.62524 12.5867C7.10906 13.1378 6.23456 13.1378 5.71837 12.5867C5.37646 12.2217 4.85616 12.0839 4.37842 12.2319L4.33184 12.2463C3.62458 12.4654 2.88076 12.0349 2.71833 11.3126C2.60959 10.8289 2.22917 10.4529 1.74431 10.3497L1.6933 10.3389C0.973719 10.1858 0.545772 9.44254 0.774672 8.74337C0.928166 8.27453 0.78765 7.75852 0.418438 7.43133C-0.139478 6.93691 -0.139478 6.06319 0.418438 5.56877C0.78765 5.24158 0.928166 4.72557 0.774672 4.25673C0.545772 3.55756 0.97372 2.81428 1.6933 2.66121L1.74431 2.65036C2.22917 2.54722 2.60959 2.17118 2.71833 1.68754C2.88076 0.965171 3.62458 0.534702 4.33184 0.753761L4.37842 0.768188C4.85616 0.916161 5.37646 0.778389 5.71837 0.413378Z" fill="#2250D2"/>
</svg>
