<svg width="98" height="98" viewBox="0 0 98 98" fill="none" xmlns="http://www.w3.org/2000/svg">
<path d="M47.5215 0.651562C48.3157 -0.217262 49.6843 -0.217263 50.4785 0.651561L58.4839 9.40928C59.0107 9.98553 59.8243 10.2032 60.5684 9.96704L71.8961 6.37172C73.0193 6.01522 74.2061 6.7006 74.4587 7.85164L76.9957 19.414C77.1635 20.1784 77.761 20.7751 78.5257 20.9418L90.1292 23.4712C91.2832 23.7227 91.9701 24.9129 91.6107 26.0379L88.0108 37.3056C87.772 38.0529 87.9915 38.8708 88.5722 39.3982L97.3435 47.3633C98.2188 48.1582 98.2188 49.5343 97.3435 50.3292L88.5722 58.2943C87.9915 58.8217 87.772 59.6396 88.0108 60.3869L91.6107 71.6546C91.9701 72.7796 91.2832 73.9698 90.1292 74.2213L78.5257 76.7507C77.761 76.9174 77.1635 77.5141 76.9957 78.2786L74.4587 89.8409C74.2061 90.9919 73.0193 91.6773 71.8961 91.3208L60.5684 87.7255C59.8243 87.4893 59.0107 87.707 58.4839 88.2832L50.4785 97.0409C49.6843 97.9098 48.3157 97.9098 47.5215 97.0409L39.5161 88.2832C38.9893 87.707 38.1757 87.4893 37.4316 87.7255L26.1039 91.3208C24.9806 91.6773 23.7939 90.9919 23.5413 89.8409L21.0043 78.2786C20.8365 77.5141 20.239 76.9174 19.4743 76.7507L7.87075 74.2213C6.71681 73.9698 6.02986 72.7796 6.38929 71.6546L9.98921 60.3869C10.228 59.6396 10.0085 58.8217 9.42775 58.2943L0.65649 50.3292C-0.218811 49.5343 -0.21881 48.1582 0.656491 47.3633L9.42775 39.3982C10.0085 38.8708 10.228 38.0529 9.98921 37.3056L6.38929 26.0379C6.02986 24.9129 6.71681 23.7227 7.87075 23.4712L19.4743 20.9418C20.239 20.7751 20.8365 20.1784 21.0043 19.414L23.5413 7.85164C23.7939 6.7006 24.9806 6.01522 26.1039 6.37172L37.4316 9.96704C38.1757 10.2032 38.9893 9.98553 39.5161 9.40928L47.5215 0.651562Z" fill="white"/>
</svg>
