<svg width="249" height="250" viewBox="0 0 249 250" fill="none" xmlns="http://www.w3.org/2000/svg">
<path d="M136.951 242.428C131.255 251.726 117.745 251.726 112.049 242.428C107.602 235.168 97.909 233.239 91.0224 238.245C82.2082 244.651 69.7318 239.46 68.0234 228.699C66.6887 220.29 58.4707 214.783 50.1921 216.769C39.5964 219.31 30.0592 209.734 32.5921 199.137C34.5717 190.854 29.0877 182.614 20.6777 181.275C9.91098 179.559 4.75562 167.069 11.1512 158.239C16.1492 151.339 14.2302 141.632 6.97185 137.17C-2.32395 131.456 -2.32394 117.945 6.97185 112.231C14.2302 107.769 16.1492 98.0621 11.1512 91.162C4.75563 82.3325 9.91099 69.8417 20.6777 68.1266C29.0877 66.7869 34.5718 58.5473 32.5921 50.2645C30.0592 39.6668 39.5964 30.0914 50.1921 32.6327C58.4707 34.6182 66.6887 29.1107 68.0235 20.7026C69.7318 9.9408 82.2082 4.75 91.0224 11.1567C97.909 16.1623 107.602 14.2328 112.049 6.97311C117.745 -2.32443 131.255 -2.32443 136.951 6.97311C141.398 14.2328 151.091 16.1623 157.978 11.1567C166.792 4.75001 179.268 9.94081 180.977 20.7027C182.311 29.1107 190.529 34.6182 198.808 32.6327C209.404 30.0914 218.941 39.6668 216.408 50.2646C214.428 58.5473 219.912 66.7869 228.322 68.1266C239.089 69.8417 244.244 82.3325 237.849 91.162C232.851 98.0621 234.77 107.769 242.028 112.231C251.324 117.945 251.324 131.456 242.028 137.17C234.77 141.632 232.851 151.339 237.849 158.239C244.244 167.069 239.089 179.559 228.322 181.275C219.912 182.614 214.428 190.854 216.408 199.137C218.941 209.734 209.404 219.31 198.808 216.769C190.529 214.783 182.311 220.29 180.977 228.699C179.268 239.46 166.792 244.651 157.978 238.245C151.091 233.239 141.398 235.168 136.951 242.428Z" fill="#193CA0"/>
</svg>
