<svg width="16" height="16" viewBox="0 0 16 16" fill="none" xmlns="http://www.w3.org/2000/svg">
<circle cx="8" cy="8" r="5.664" fill="white"/>
<path d="M16 8C16 3.58176 12.4182 0 8 0C3.58176 0 0 3.58176 0 8C0 12.4182 3.58176 16 8 16C12.4182 16 16 12.4182 16 8ZM11.5334 12.24H9.43264V7.5904H7.42208V12.24H5.3088V7.5904H4.1104V5.8704H5.3088V5.34816C5.3088 3.98528 6.33984 3.05536 7.8736 3.05536H9.43296V4.77504H8.22176C7.73184 4.77504 7.4224 5.04256 7.4224 5.47584V5.8704H11.5338V12.24H11.5334Z" fill="#1DBF73"/>
</svg>
