<svg width="39" height="47" viewBox="0 0 39 47" fill="none" xmlns="http://www.w3.org/2000/svg">
<path d="M0.0700342 30.801C0.0700342 30.8243 0.0700342 30.8243 0.0700342 30.801L0.0933226 27.1199C0.0933226 27.0966 0.0933226 27.0966 0.0933226 27.0733L0.16317 20.317C0.16317 20.317 0.16317 20.317 0.16317 20.3403L0.186458 16.4962L0.233017 10.0194C0.302867 4.40469 9.01086 -0.091768 19.6979 0.0014228C30.4083 0.0946136 39.0464 4.73085 38.9999 10.3456L38.9533 17.1252V17.1485L38.9067 22.274C38.9067 22.274 38.9067 22.274 38.9067 22.2973L38.8602 25.8386C38.8602 25.8386 38.8602 25.8386 38.8602 25.8153L38.8369 31.1271L38.7903 37.9068C38.7205 43.5448 30.0358 46.6201 19.3021 46.5502C8.61504 46.457 -0.0463799 43.2186 0.000186893 37.6039L0.0700342 30.801Z" fill="#FFA31A"/>
</svg>
