<svg width="16" height="17" viewBox="0 0 16 17" fill="none" xmlns="http://www.w3.org/2000/svg">
<path d="M15.9909 7.7754C15.8396 2.75613 11.7317 0 7.8818 0C6.4265 0 5.09251 0.369751 3.87988 1.12413C2.65259 1.8785 1.71262 2.8638 1.03064 4.11118C0.348662 5.35856 0 6.71289 0 8.16073C0 9.62344 0.348658 10.9778 1.06132 12.2252C1.77328 13.4725 2.74325 14.4422 3.97123 15.1662C5.19921 15.8894 6.54783 16.2591 8.01847 16.2591C9.63974 16.2591 11.1104 15.8129 12.429 14.9041C13.7476 14.0116 14.733 12.8407 15.3696 11.3787L10.5644 11.3475C9.83708 11.9482 8.94242 12.2556 7.8818 12.2556C6.07784 12.2556 4.72921 11.2859 4.34987 9.73111H15.8696C15.9756 9.0844 16.0209 8.43769 15.9909 7.7754ZM4.34987 6.45152C5.00186 4.92718 6.25983 4.00351 8.01847 4.00351C8.7911 4.00351 9.51841 4.21884 10.2011 4.66509C10.8677 5.11205 11.353 5.71202 11.671 6.45152H4.34987Z" fill="white"/>
</svg>
