<svg width="14" height="22" viewBox="0 0 14 22" fill="none" xmlns="http://www.w3.org/2000/svg">
<path d="M9.59038 8.26822C9.59038 10.7999 8.75939 11.9658 6.81116 11.9658C4.86293 11.9658 4.03264 10.7999 4.03264 8.26822V0H0V8.26892C0 13.5467 2.85425 15.9549 6.81116 15.9549C7.76304 15.9549 8.66907 15.7707 9.55981 15.4029V15.4947C9.55981 17.0439 8.68366 18.0108 6.81116 18.0108C5.72379 18.0108 5.21033 17.6579 4.59126 16.8759H0.105603C0.664226 18.4406 1.52509 19.6835 2.68819 20.6194C3.8513 21.5397 5.22562 21.9999 6.81116 21.9999C8.78996 21.9999 10.4207 21.3252 11.7047 19.9905C12.9887 18.6404 13.623 16.9528 13.623 14.928V0.000702162H9.59038V8.26822Z" fill="white"/>
</svg>
