<svg width="15" height="13" viewBox="0 0 15 13" fill="none" xmlns="http://www.w3.org/2000/svg">
<path d="M14.6567 11.2394L10.5483 7.946C10.9497 7.19718 11.1795 6.34189 11.1795 5.43692C11.1795 2.43455 8.67655 0 5.58977 0C2.50299 0 0 2.43455 0 5.43692C0 8.43929 2.50299 10.8738 5.58977 10.8738C7.06019 10.8738 8.3956 10.3202 9.39533 9.41879L13.4454 12.666C13.8467 12.989 14.4414 12.9322 14.7735 12.5418L14.7844 12.5276C15.1164 12.1408 15.0581 11.5623 14.6567 11.2394ZM5.58612 9.13133C3.48813 9.13133 1.7915 7.47754 1.7915 5.44047C1.7915 3.39985 3.49178 1.74961 5.58612 1.74961C7.68411 1.74961 9.38074 3.4034 9.38074 5.44047C9.38438 7.47754 7.68411 9.13133 5.58612 9.13133Z" fill="#FF693B"/>
</svg>
