<svg width="59" height="32" viewBox="0 0 59 32" fill="none" xmlns="http://www.w3.org/2000/svg">
<path d="M59 31.278C57.7515 30.2029 57.7026 30.2988 56.4146 29.287C49.7383 24.0759 44.3499 20.5976 42.7333 19.5731L43.1013 18.9912L29.6303 11.1746L29.5121 11.3643C29.5121 11.3643 27.1858 0.853534 20.1546 0.0946344C13.1366 -0.664265 1.82831 3.46931 0.303783 0.876398C-1.22074 -1.71651 2.54378 20.3826 21.9289 22.0901C22.2049 22.1154 22.4808 22.1407 22.7437 22.1533L22.6517 22.3051L27.1464 24.9107L36.1358 30.1218L36.4118 29.6791C37.2135 30.0712 37.6524 29.9246 40.4649 31.278H59Z" fill="black" fill-opacity="0.2"/>
</svg>
