<svg width="261" height="150" viewBox="0 0 261 150" fill="none" xmlns="http://www.w3.org/2000/svg">
<path d="M7.9744 92.277C8.8226 92.277 9.52944 92.1363 10.3776 91.7142C10.9431 91.2921 11.6499 91.0107 12.3568 91.0107C12.4981 91.0107 12.6395 90.87 12.9222 90.87C14.3359 90.4479 15.7496 90.0257 17.1632 89.885C17.8701 89.6036 18.5769 89.3222 19.2837 89.0408C20.1319 88.6187 21.1215 88.6187 21.9697 88.1966C22.9593 87.2117 24.2316 87.3524 25.3625 86.9303C25.6452 86.5082 26.0694 86.0861 26.6348 86.0861C27.7657 86.0861 28.614 85.5233 29.6035 85.1012C31.0172 84.1163 32.7136 83.5535 34.5514 83.2721C36.6719 82.4279 38.7924 81.5837 40.9129 80.7395C41.1956 80.5988 41.4783 80.4581 41.7611 80.5988C41.9024 80.5988 42.0438 80.4581 42.3266 80.4581C42.4679 80.3174 42.4679 80.3174 42.6093 80.1767C41.9024 79.8953 41.0542 80.8802 40.3474 80.5988C39.9233 80.7395 39.4992 80.8802 38.9338 81.1616C38.5097 81.3023 38.3683 81.3023 38.3683 81.0209C38.3683 80.8802 38.2269 80.7395 38.2269 80.7395C38.0855 80.7395 38.0855 80.7395 37.9442 80.8802C37.6614 81.0209 38.0856 81.443 37.6614 81.5837C37.5201 81.5837 37.3787 81.443 37.2373 81.3023C37.096 81.0209 37.5201 80.8802 37.9442 80.8802C38.9337 80.5988 39.9233 80.036 41.0542 79.8953C41.6197 79.7546 42.1852 79.4732 42.6093 79.3325V79.4732C42.6093 79.4732 42.4679 79.4732 42.4679 79.3325V79.1918C42.3266 79.1918 42.1852 79.1918 42.0438 79.1918C41.6197 79.3325 41.1956 79.4732 40.7715 79.6139C40.3474 79.7546 40.0647 79.7546 39.6406 79.8953C39.2165 80.036 38.7924 80.3174 38.3683 80.036C38.651 79.6139 39.2165 79.7546 39.6406 79.6139C40.3474 79.4732 40.9129 78.9104 41.6197 79.0511C41.7611 79.0511 41.9024 78.9104 42.1852 78.9104C42.7507 78.7697 43.3161 78.629 43.8816 78.3476C44.0229 78.2069 44.1643 78.2069 44.3057 78.0662V77.9255C43.4575 77.9255 42.6093 78.4883 41.7611 78.4883C41.6197 78.4883 41.4784 78.629 41.1956 78.629C40.7715 78.7697 40.2061 78.9104 39.7819 78.9104C39.7819 78.629 40.0647 78.4883 40.2061 78.3476C40.2061 78.2069 40.3474 78.2069 40.3474 78.0662C40.206 78.0662 40.2061 78.0662 40.0647 78.0662C39.9233 78.0662 39.6406 78.0662 39.4992 78.0662C38.651 78.4883 37.6614 78.4883 36.9546 79.0511C36.6719 79.1918 36.5305 79.0511 36.5305 78.9104C35.1168 79.4732 33.7032 79.7546 32.2895 80.036C31.724 80.036 31.1586 80.3174 30.7345 80.036C30.4517 80.1767 30.0276 80.3174 29.7449 80.4581C28.7553 80.8802 27.9071 81.1616 26.9175 80.8802C27.2003 80.4581 27.6244 80.5988 27.9071 80.4581C28.3312 80.4581 28.614 80.4581 29.038 80.1767C29.1794 80.1767 29.3208 80.036 29.6035 80.036C30.7345 79.6139 31.8654 79.0511 32.9963 79.1918C33.2791 79.0511 33.5618 78.7697 33.9859 78.7697C34.8341 78.0662 36.2478 77.9255 37.096 77.0813C36.5305 77.3627 36.1064 77.222 35.6823 77.222C35.5409 77.222 35.2582 77.3627 35.1168 77.3627C34.5514 77.5034 33.9859 77.7848 33.4204 77.7848C31.4413 78.3476 29.4621 79.1918 27.3416 79.4732C26.0693 79.8953 24.9384 80.4581 23.6661 80.4581C23.6661 80.1767 23.9488 80.1767 24.0902 80.036C24.2316 79.8953 24.5143 79.8953 24.797 79.7546C25.3625 79.6139 25.928 79.1918 26.4934 79.3325C27.2003 79.0511 27.7657 78.9104 28.4726 78.629C28.8967 78.4883 29.3208 78.2069 29.8862 78.2069C30.8758 77.9255 31.8654 77.3627 32.9963 77.222C33.9859 76.9406 34.9755 76.6592 35.8237 76.7999C36.3891 76.2371 37.096 76.0964 37.9442 75.815C38.2269 75.6743 38.5096 75.5336 38.651 75.3929C39.0751 74.6894 39.7819 74.408 40.7715 74.408C42.0438 74.1266 43.3161 73.7045 44.5884 73.1417C44.8712 72.8603 45.1539 72.5789 45.4366 72.1568V72.0161C45.2952 72.1568 45.0125 72.1568 44.8712 72.1568C43.1748 72.4382 41.6197 73.4231 39.9233 73.4231C39.4992 73.5638 39.2165 73.7045 38.7924 73.8452C38.3683 74.1266 37.9442 74.1266 37.6614 74.1266C37.3787 74.5487 36.8133 74.6894 36.2478 74.6894C35.6823 74.8301 35.2582 74.9708 34.6927 75.1115C34.2686 75.2522 33.9859 75.3929 33.5618 75.5336C32.855 75.6743 32.2895 76.2371 31.5827 76.0964C32.1481 75.815 32.855 75.5336 33.4204 75.2522C33.8445 75.1115 34.1273 75.1115 34.5514 74.9708C35.2582 74.2673 36.2478 74.408 36.9546 74.1266C37.096 73.4231 37.8028 73.8452 38.2269 73.5638C38.3683 73.1417 38.7924 73.001 39.2165 72.8603C39.6406 72.7196 40.2061 72.4382 40.2061 73.001C42.0438 72.2975 43.7402 71.3126 45.578 70.8905C46.0021 70.3277 46.8503 70.187 47.4157 69.9056C48.1226 69.6242 48.9708 69.4835 49.6776 69.3428C50.5258 69.3428 51.5154 68.6393 52.3636 68.6393C52.3636 68.6393 52.3636 68.4986 52.505 68.4986C52.0809 68.2172 52.2222 67.7951 52.7877 67.2323C52.7877 68.2172 53.6359 67.9358 54.4841 67.5137C54.7668 67.373 55.0496 67.2323 55.4737 67.373C56.0391 67.373 56.4632 66.6695 57.0287 66.8102C57.3114 66.6695 57.3114 66.5288 57.1701 66.3881C56.746 66.3881 56.6046 66.1067 56.8873 65.8253C57.0287 65.5439 57.3114 65.4032 57.7355 65.6846C58.0183 65.8253 58.301 65.2625 58.7251 65.2625C59.2906 65.1218 59.856 64.9811 60.2801 64.8404C61.5524 64.1369 62.9661 63.5741 64.3798 63.4334C64.6625 63.2927 64.9452 63.2927 65.0866 63.152C65.0866 63.0113 65.228 63.0113 65.228 62.8706C65.7934 61.4635 67.4898 61.3228 68.7621 60.4786C68.7621 61.0414 67.9139 61.3228 67.9139 61.745C68.0553 61.745 68.3381 61.745 68.4794 61.745C68.6208 61.745 68.6208 61.745 68.7621 61.745C69.0449 61.6043 69.1863 61.4635 69.469 61.4635C69.7517 61.1822 69.6104 60.9008 70.3172 60.7601C70.7413 60.6194 71.3067 60.1972 71.4481 59.9158C72.0136 59.0716 72.579 59.2123 73.2859 59.2123C73.71 58.9309 74.2755 58.7902 74.9823 58.5088C75.8305 58.0867 76.5373 57.946 77.3855 57.6646C77.6683 57.5239 77.951 57.3832 78.3751 57.2425C78.3751 57.5239 77.951 57.8053 78.2337 57.946C78.3751 57.946 78.5165 57.8053 78.6578 57.8053C79.3647 57.6646 79.3647 56.8204 80.2129 57.1018C80.9197 56.8204 81.6265 56.1169 82.4747 56.539C82.6161 56.3983 82.6161 56.3983 82.7575 56.2576C83.4643 55.5541 84.4539 55.6948 85.1607 55.4134C85.0193 55.132 84.7366 54.9913 84.5952 54.8506C84.4539 54.8506 84.3125 54.8506 84.3125 54.8506C83.747 55.132 83.0402 55.132 82.4747 55.5541C82.3334 55.6948 82.3334 56.2576 81.9093 55.6948C81.6265 55.4134 81.3438 55.8355 81.0611 55.8355C80.637 55.8355 80.2129 56.2576 79.7888 56.1169C80.0715 55.8355 80.637 55.6948 80.9197 55.5541C81.7679 55.2727 82.4747 54.9913 83.3229 54.5692C83.3229 54.4285 83.4643 54.2878 83.4643 54.1471C83.0402 54.2878 82.3334 54.4285 82.7575 53.8657C82.3334 53.725 81.9093 54.1471 81.4852 54.0064C81.3438 54.0064 81.3438 54.0064 81.2024 54.0064C80.637 54.2878 79.9301 54.7099 79.2233 54.5692C79.0819 54.5692 78.7992 54.7099 78.6578 54.7099L78.5165 54.5692C78.3751 54.4285 78.2337 54.4285 78.0924 54.2878C77.5269 54.1471 77.951 54.0064 78.2337 53.8657C78.2337 53.725 78.3751 53.4436 78.2337 53.3029C77.8096 52.8808 78.3751 52.8808 78.7992 52.8808C78.9406 52.8808 78.9406 52.8808 79.0819 52.8808C79.3647 53.0215 79.7888 52.5994 79.7888 52.8808C79.7888 53.3029 79.2233 53.0215 78.9406 53.3029C78.9406 53.4436 78.9406 53.5843 79.0819 53.5843C79.506 53.725 79.7888 53.725 80.3542 53.5843C80.7783 53.0215 81.3438 53.0215 81.9093 52.8808C82.6161 52.0366 83.0402 52.7401 83.6057 52.5994C83.747 52.5994 83.8884 52.5994 83.8884 52.5994C84.5952 52.318 85.3021 51.3331 86.1503 52.0366C86.1503 52.0366 86.0089 52.0366 86.0089 52.1773C86.0089 52.1773 86.0089 52.0366 86.1503 52.0366C86.433 51.7552 86.1503 51.6145 86.1503 51.4738C85.4434 51.6145 84.878 51.6145 85.5848 50.911C86.0089 50.7703 86.5744 50.4889 86.9985 50.4889C87.2812 50.3482 87.4226 50.3482 87.5639 50.4889C88.6949 49.9261 90.1085 49.7854 90.9567 48.6598C91.5222 47.9563 92.9359 47.9563 93.9254 47.6749C94.0668 47.5342 94.3495 47.5342 94.4909 47.3935C94.7737 47.1121 95.0564 46.8307 95.4805 46.8307C96.8942 46.4086 98.3078 45.5644 99.8629 45.4237C100.428 45.283 100.852 44.7202 101.418 44.8609C101.559 44.8609 101.559 44.8609 101.701 44.7202C102.125 44.5795 102.407 44.2981 102.69 44.0167C104.245 42.8911 106.224 42.6097 108.062 41.9062C108.486 41.7655 109.052 41.4841 109.617 41.6248C110.183 40.9213 111.031 40.7806 111.879 40.6399C113.575 39.9364 115.272 39.3736 116.968 38.6701C117.11 38.6701 117.392 38.5294 117.534 38.5294C118.382 38.248 119.371 37.8259 120.22 37.5445C120.502 37.2631 120.785 37.4038 121.068 37.4038C121.916 36.9817 122.623 36.7003 123.471 36.2782C124.319 35.7154 125.309 35.8561 126.157 35.434C126.581 35.1526 127.005 34.8712 127.429 34.8712C127.995 34.5898 128.56 34.3084 129.126 34.4491C130.257 34.027 130.964 33.1828 132.094 32.7607C132.236 32.62 132.236 32.6199 132.377 32.4792C132.519 32.0571 132.943 32.0571 133.367 31.9164C134.074 31.3536 133.932 31.9164 134.074 32.0571C133.791 32.1979 133.65 32.1978 133.367 32.3385C133.508 32.1978 133.791 32.0571 134.074 32.0571C134.498 32.0571 134.78 31.7757 135.205 31.7757C135.487 31.635 136.053 31.4943 136.194 31.2129C136.194 30.7908 136.477 30.3687 137.042 30.0873C137.325 29.6652 137.749 29.8059 138.173 29.6652C138.315 29.6652 138.456 29.6652 138.597 29.6652C138.88 29.5245 139.021 29.3838 139.304 29.2431C139.87 28.6803 140.294 28.6803 140.577 29.2431C140.859 29.2431 140.859 29.3838 141.001 29.5245C141.142 29.5245 141.142 29.5245 141.283 29.3838C141.425 29.2431 141.707 28.9617 141.849 29.3838C141.99 29.5245 141.99 29.6652 142.273 29.5245C142.838 29.1024 143.262 29.3838 143.828 29.3838C143.969 29.1024 144.111 28.9617 144.393 28.6803H144.535C144.676 28.3989 144.393 27.8361 145.383 27.8361C145.666 27.6954 146.09 27.5547 146.373 27.414C146.797 27.2733 147.079 26.8512 147.503 27.1326C148.21 26.7105 149.059 26.4291 149.907 26.2884C150.048 26.2884 150.189 26.1477 150.472 26.1477C150.472 26.1477 150.472 26.1477 150.472 26.2884H150.331C151.179 25.7256 151.886 25.1628 152.875 24.7407C153.017 24.3186 153.582 23.8965 154.148 23.8965C154.713 23.8965 154.006 24.3186 154.148 24.6C154.572 24.6 154.572 24.3186 154.855 24.1779V24.0372C154.713 23.6151 154.713 23.3337 155.561 23.3337C155.844 23.193 156.127 23.193 156.268 23.0523C156.41 23.0523 156.551 22.7709 156.834 22.9116C157.399 22.4895 158.813 22.6302 158.813 21.6453C158.813 21.6453 159.52 21.3639 159.944 21.2232C160.226 20.5197 160.792 20.5197 161.357 20.2383C161.923 19.8162 161.782 20.2383 161.923 20.379C162.064 20.379 162.064 20.379 162.206 20.379V20.5197C162.206 20.5197 162.064 20.5197 162.064 20.379C162.347 20.2383 162.064 19.8162 162.63 19.6755C164.043 19.3941 165.033 18.5499 166.164 17.9871C166.588 17.7057 166.871 17.4243 167.436 17.4243C168.426 16.8615 169.839 16.7208 170.546 15.8766C170.829 15.4545 171.253 15.3138 171.536 15.3138C171.819 15.1731 172.101 15.0324 172.384 14.8917C172.243 14.4696 171.677 14.8917 171.394 14.751C171.96 14.6103 172.384 14.3289 172.808 14.1882C173.374 14.0475 173.798 13.344 174.646 13.4847C174.787 13.344 174.929 13.2033 175.07 13.0626C175.353 12.4998 176.342 12.3591 176.766 11.7963C177.049 11.2335 177.756 11.0928 178.321 11.0928C178.463 10.9521 178.604 10.9521 178.887 10.8114C179.028 10.8114 179.17 10.6707 179.311 10.6707C179.311 10.53 179.17 10.2486 179.452 10.1079C180.866 9.26368 182.421 8.84157 183.976 8.27877C184.683 7.99736 184.259 8.56017 184.542 8.56017C184.683 8.56017 184.966 8.56017 185.107 8.56017C186.097 8.27877 186.945 7.85668 188.076 8.13808C188.783 8.27878 189.772 7.71596 190.62 7.57526C190.762 7.57526 190.762 7.43457 190.903 7.43457C191.327 7.01247 191.61 6.59036 192.034 7.15317C192.034 7.15317 192.317 7.01245 192.458 7.01245C192.599 6.02756 193.872 6.30896 194.579 5.88685C194.579 5.74615 194.579 5.46475 194.579 5.32405C194.296 4.90196 194.013 4.62056 195.144 4.47985C195.144 4.62056 195.003 4.76126 195.003 4.90196C194.861 4.76126 194.861 4.62056 195.144 4.47985C195.71 4.05777 196.416 3.77636 196.841 3.21356C197.406 2.36935 198.396 1.94726 199.526 1.66585C200.799 0.821645 202.071 0.540242 203.343 0.540242C204.05 0.540242 204.757 -0.303967 205.464 0.118137C206.453 0.680944 206.171 1.80654 206.736 2.51005C207.443 2.22865 207.867 2.36935 208.291 2.65075C208.291 2.22865 208.433 1.80654 209.281 1.94724C209.422 1.94724 209.422 1.80654 209.564 1.80654C210.836 1.24373 211.967 1.10305 213.098 1.24375C213.663 1.52514 214.653 1.24375 215.077 1.66585C215.218 1.94726 215.784 2.08794 215.36 2.51005C215.077 2.93215 214.653 3.21356 213.946 3.07285C213.239 3.49494 212.532 3.77635 211.825 4.05775C211.684 4.19845 211.401 4.19845 211.26 4.33915C211.26 4.33915 211.119 4.47985 210.977 4.47985C210.694 4.76126 210.27 4.90196 209.846 4.90196C209.422 5.18336 209.139 5.46477 208.715 5.74617C208.433 6.30897 207.726 6.44966 207.16 6.73106C206.878 6.87177 206.453 7.15317 206.171 7.29387C205.888 7.71597 205.747 7.99736 205.888 8.41947C205.888 8.98227 205.464 8.56017 205.181 8.70087C205.04 9.54508 205.605 10.1079 205.323 10.9521C205.464 11.2335 205.464 11.5149 205.04 11.7963C205.04 11.937 204.898 12.0777 204.898 12.2184C205.04 12.4998 205.464 12.3591 205.888 12.2184L206.029 12.0777C206.453 11.7963 207.019 11.5149 207.302 10.9521C208.008 11.6556 207.584 12.3591 207.16 13.0626C207.302 13.2033 207.443 13.344 207.584 13.4847C207.443 13.7661 207.302 13.9068 207.16 14.1882C207.302 14.6103 207.16 14.8917 206.736 15.3138C206.595 15.1731 206.453 14.8917 206.312 14.751C206.736 14.751 206.878 14.8917 206.878 15.3138C206.878 15.5952 206.736 15.8766 207.019 15.8766C207.584 15.4545 208.008 14.8917 208.433 14.4696C208.715 14.0475 209.281 14.0475 209.705 13.7661C210.694 12.7812 212.249 12.4998 213.522 12.0777C213.663 11.937 213.663 11.937 213.805 11.7963C213.38 11.5149 212.532 12.0777 211.967 11.7963C213.805 10.8114 215.501 9.82647 217.621 9.40436C218.752 8.84157 219.176 9.26368 219.601 9.82648C219.601 9.82648 219.601 9.96717 219.459 9.96717C219.459 9.96717 219.459 9.82648 219.601 9.82648C219.883 9.96718 220.449 9.26368 220.449 9.82648C220.449 10.3893 220.025 10.6707 219.318 10.6707L219.176 10.8114C218.894 11.3742 218.046 11.2335 217.621 11.6556C217.48 11.937 217.197 12.2184 216.915 12.3591C216.49 12.7812 217.056 12.6405 217.197 12.9219C217.48 12.9219 217.621 13.0626 217.763 13.344C217.904 13.344 218.046 13.344 218.046 13.4847C218.47 13.344 219.035 13.2033 219.176 13.0626C219.742 12.4998 220.166 12.7812 220.731 12.6405C220.59 12.3591 220.59 12.2184 220.731 12.0777C220.307 11.7963 220.449 11.3742 220.731 10.9521C220.873 10.8114 221.014 10.3893 221.58 10.3893C222.145 10.3893 222.145 10.6707 222.145 10.9521C222.145 10.9521 222.145 10.9521 222.145 11.0928V10.9521C222.287 10.9521 222.287 10.9521 222.428 10.9521C222.852 10.53 223.276 10.53 223.842 10.53C224.266 10.3893 224.548 10.2486 224.973 9.96717C224.973 10.3893 224.124 10.3893 224.124 10.8114L224.266 10.9521C224.69 10.8114 225.114 10.6707 225.538 10.53C226.81 9.82647 227.941 9.26368 229.214 8.56017C229.214 8.56017 229.355 8.41947 229.496 8.41947C229.638 8.41947 229.779 8.41947 229.92 8.41947C229.779 8.41947 229.496 8.56017 229.496 8.41947C230.344 8.13806 230.769 7.57527 231.475 7.29387C231.617 6.87177 232.182 6.87177 232.465 6.73106C233.03 6.30896 233.596 6.30896 234.161 6.44966C235.151 6.02756 236.282 5.60547 237.413 5.46477C237.978 5.60547 238.402 5.46477 238.968 5.04266C238.685 5.74617 237.837 5.74615 237.271 6.02756C236.989 6.30896 236.423 6.30896 235.999 6.59036C235.434 6.87177 235.999 7.15317 235.716 7.43457C235.716 7.57527 235.716 7.71597 235.858 7.85666C235.858 7.85666 235.999 7.85668 235.999 7.99738C236.282 7.99738 236.565 7.85666 236.706 7.85666C237.413 7.43457 237.837 6.59036 238.826 6.73106C239.533 6.87177 240.099 6.59036 240.806 6.30897C242.219 6.02757 242.926 6.30896 243.209 7.15317C244.622 7.01247 242.785 7.71597 243.067 7.99738C244.057 8.41947 243.35 9.26366 243.492 9.96717C243.492 10.3893 243.916 10.6707 243.35 11.2335C243.35 11.937 243.209 12.4998 243.492 13.0626C243.774 13.344 243.209 13.4847 242.926 13.7661C242.785 13.9068 242.502 14.1882 242.361 14.3289C242.502 14.4696 242.785 14.3289 242.926 14.3289C243.209 14.1882 243.492 14.1882 243.774 14.1882C243.916 14.1882 244.057 14.3289 244.198 14.1882C245.329 13.7661 245.188 14.3289 245.329 14.6103C245.471 14.6103 245.471 14.751 245.612 14.751C245.895 15.1731 245.612 15.7359 245.612 16.158V16.2987C245.612 16.4394 245.612 16.5801 245.753 16.5801C246.46 16.4394 246.743 17.0022 247.45 16.7208C247.45 16.5801 247.45 16.4394 247.308 16.2987C246.884 15.7359 247.733 15.4545 248.157 15.1731C248.864 14.8917 249.146 15.3138 249.146 15.5952C249.146 16.0173 249.57 16.4394 249.288 17.0022C249.288 17.2836 249.429 17.4243 249.429 17.7057C249.853 18.4092 250.277 18.972 249.712 19.8162C249.712 20.0976 249.288 20.379 249.005 20.6604C249.005 20.9418 248.864 21.3639 248.864 21.6453C249.005 21.9267 249.288 22.2081 249.712 22.3488C250.701 23.193 250.419 24.4593 250.419 25.5849C250.419 25.8663 250.56 26.007 250.419 26.2884C250.419 26.4291 250.277 26.8512 250.701 26.8512C252.398 26.8512 252.539 27.1326 251.267 28.2582L251.125 28.3989C250.843 28.6803 250.419 28.821 250.136 29.1024C248.581 30.0873 247.026 30.9316 245.188 31.4944C244.622 31.7758 244.057 32.0571 243.492 32.4792C243.492 32.7606 243.35 33.0421 243.492 33.1828C243.633 33.0421 243.916 32.9014 244.057 32.7607C245.329 31.6351 246.743 32.0571 248.015 31.7757C248.015 30.9315 248.864 31.2129 249.429 31.0722C250.136 31.0722 250.984 30.5094 251.691 30.6501C252.398 30.3687 253.105 30.3687 253.811 30.3687C254.801 30.3687 255.508 30.6501 256.639 30.0873C256.921 29.9466 257.628 29.9466 257.487 30.5094C258.052 30.7908 258.194 31.3536 258.052 31.9164C258.194 31.9164 258.194 31.7757 258.335 31.635C258.759 31.635 258.618 31.7757 258.476 31.9164C258.194 32.3386 258.476 32.6199 258.618 32.9014C258.759 32.9014 258.618 33.0421 258.759 33.1828C258.759 33.1828 258.901 33.3234 258.759 33.4641C259.183 34.1676 259.89 34.8712 259.749 35.8561C259.749 35.9968 259.607 36.1375 259.466 36.2782C259.042 36.9817 260.031 37.6852 258.901 38.5294C258.901 38.8108 258.759 39.0922 258.335 39.0922C257.487 38.9515 256.639 39.3736 255.932 39.2329C255.508 39.2329 255.084 39.655 254.66 39.5143C254.518 39.5143 254.377 39.655 254.094 39.655C253.811 39.9364 253.387 39.9364 252.963 40.0771C251.267 40.7806 249.429 40.7806 247.733 41.6248C248.015 41.9062 248.298 42.1876 248.581 42.469C249.005 42.469 249.57 42.1876 249.712 42.6097C250.136 43.876 250.984 45.0016 250.277 46.5493V46.69V46.8307C250.843 47.1121 251.125 47.6749 251.125 48.2377C251.549 48.2377 251.832 48.3784 251.267 48.9412C250.984 49.2226 250.984 49.3633 251.125 49.6447C251.267 49.6447 251.408 49.7854 251.549 49.9261C251.691 49.9261 251.832 49.9261 251.832 49.9261C253.105 50.0668 253.387 50.6296 253.67 51.4738C253.67 51.6145 253.811 51.8959 253.953 52.0366C254.377 52.4587 254.66 52.7401 254.66 53.3029C254.942 53.8657 255.084 54.2878 255.366 54.8506C255.366 55.132 255.649 55.4134 254.801 55.4134H254.66C254.518 55.8355 254.377 55.9762 254.235 56.2576C254.518 56.8204 254.66 57.2425 254.801 57.8053V57.946C255.084 58.3681 254.801 58.7902 253.953 59.0716L253.811 59.2123C253.67 59.353 253.67 59.353 253.529 59.4938C253.387 59.9158 253.953 59.7751 254.235 59.7751C254.235 59.7751 254.377 59.7751 254.377 59.6344C254.942 59.353 255.508 59.353 255.932 59.0716C256.073 59.0716 256.073 58.9309 256.215 58.9309C256.639 58.7902 256.921 58.5088 257.346 58.2274C257.77 57.946 258.194 57.946 258.335 58.2274C258.759 59.353 260.031 60.0565 260.597 61.1822C260.738 61.3229 260.738 61.4635 260.597 61.745C260.597 61.8857 260.456 62.0264 260.456 62.1671C260.738 62.5892 260.314 63.0113 259.749 63.2927C259.749 63.5741 259.749 63.8555 259.749 64.1369C259.749 64.559 260.456 64.9811 259.607 65.5439C259.042 66.2474 258.476 66.9509 257.346 67.0916C257.204 67.0916 257.204 67.2323 257.063 67.2323C256.356 67.7951 255.508 67.7951 254.801 67.9358C254.66 67.9358 254.66 67.9358 254.66 67.9358C254.377 67.9358 254.094 68.0765 253.811 68.0765C253.387 68.3579 252.963 68.4986 252.398 68.4986C252.115 68.6393 251.691 68.78 251.408 68.9207C251.267 68.9207 250.984 69.0614 250.843 69.0614C250.277 69.3428 249.712 69.4835 249.005 69.7649C249.005 69.9056 249.146 70.0463 249.146 70.187C249.853 71.3126 250.277 72.2975 250.277 73.4231C250.843 73.7045 249.994 74.2673 250.136 74.6894C250.277 74.9708 250.277 75.3929 250.56 75.815C250.701 76.3778 250.277 76.2371 249.853 76.3778C249.853 77.7848 249.429 78.2069 246.884 79.1918C246.602 79.4732 246.036 79.6139 245.612 79.7546C245.471 79.8953 245.329 80.1767 245.188 80.3174C244.905 80.7395 244.622 81.1616 244.057 81.3023C243.916 81.3023 243.774 81.443 243.633 81.443C242.926 82.2872 241.795 82.4279 240.947 82.85C240.947 82.9907 240.806 83.2721 240.523 83.4128C239.251 83.8349 238.12 84.5384 236.847 84.9605C235.858 85.664 234.727 86.3675 233.313 86.5082C233.172 86.5082 233.172 86.5082 233.03 86.5082C232.606 86.5082 232.324 86.6489 232.041 86.9303C231.758 87.3524 231.193 87.3524 230.769 87.4931C230.627 87.9152 230.203 87.9152 229.779 88.0559C229.779 88.7594 228.931 88.6187 228.365 88.7594L228.224 88.9001C227.8 89.4629 227.234 89.6037 226.528 89.7443C225.962 89.8851 225.397 90.1664 224.973 90.3072C224.831 90.3072 224.69 90.4479 224.548 90.5886C222.993 91.2921 221.721 92.5584 219.883 93.1212C219.883 93.1212 219.883 93.2619 219.742 93.2619C219.318 93.5433 218.611 93.684 218.046 93.9654L217.904 94.1061C217.904 94.1061 217.904 94.1061 217.763 94.1061L217.621 94.2468C215.36 95.3724 213.098 96.0759 210.836 96.7794C210.694 96.7794 210.694 96.7794 210.553 96.7794C209.705 97.2015 208.998 97.4829 208.15 97.905C207.584 98.1864 207.302 98.0457 207.16 97.7643C206.595 97.905 206.029 97.905 205.605 98.3271C205.323 98.8899 204.05 99.1713 204.05 99.8748C203.626 100.438 203.202 100.719 202.495 100.578C202.354 100.578 202.354 100.578 202.212 100.438C202.071 100.438 202.071 100.578 201.93 100.578C201.647 100.719 201.506 101.141 200.94 101.141C200.799 101.141 200.799 101 200.799 101C200.657 100.438 201.506 100.578 201.788 100.297C201.93 100.156 202.071 100.015 202.212 100.015C202.212 99.8748 201.93 99.7341 201.647 99.8748C199.668 100.438 197.971 101.704 195.992 101.985C195.568 102.126 195.144 102.407 194.579 102.548C194.437 102.689 194.296 102.689 194.155 102.829C193.73 102.689 193.306 103.533 192.741 103.252C192.458 103.392 192.175 103.533 191.893 103.392C191.469 103.533 191.044 103.674 190.479 103.814C190.196 103.955 190.338 104.377 189.772 104.377C189.348 104.377 188.924 104.236 188.5 104.236C188.5 104.518 188.783 104.799 188.358 104.94C188.076 105.221 188.217 104.659 187.793 104.659C187.51 104.659 187.369 105.081 186.945 104.94C186.662 105.081 186.238 105.081 186.238 105.503C186.238 106.206 185.814 105.643 185.673 105.784C185.39 105.925 185.248 106.066 184.966 106.347C184.683 106.769 184.4 106.91 183.976 106.769C183.552 106.91 183.269 107.051 182.845 107.191C182.138 107.754 182.138 107.613 181.856 107.051C181.573 107.051 181.29 107.051 181.007 107.191C180.866 107.191 180.866 107.332 180.725 107.332C180.583 107.473 180.159 107.754 180.159 108.176C180.159 108.598 179.594 108.88 179.028 108.739C178.887 108.598 178.321 108.739 178.604 108.317C178.463 108.317 178.321 108.317 178.321 108.317C178.18 108.458 178.039 108.598 177.897 108.88C177.897 109.02 178.039 109.302 177.332 109.583C177.191 109.442 176.625 109.302 177.473 109.02C177.473 109.02 177.473 108.88 177.332 108.88C176.908 109.02 176.201 109.161 176.201 108.88C176.201 108.458 176.908 108.176 177.473 108.317C177.897 108.035 178.18 107.895 178.463 107.754C178.604 107.613 178.604 107.613 178.746 107.473C178.604 107.051 179.17 106.769 179.594 106.347C179.594 106.206 179.452 106.066 179.452 105.925C177.756 106.347 176.201 106.488 174.646 107.332C174.505 107.473 174.363 107.613 174.222 107.754C174.363 107.895 174.646 108.035 174.929 107.895C175.353 107.754 175.777 107.613 175.918 107.895C176.06 108.458 175.211 108.317 175.211 108.598C175.211 108.88 174.929 109.02 174.505 109.161C174.08 109.302 173.515 109.583 173.232 109.161C172.95 108.739 172.667 109.161 172.384 109.302C172.667 109.865 172.667 110.005 171.819 110.287C171.394 110.427 170.829 110.568 170.405 110.709C170.122 110.99 169.698 110.99 169.274 110.99C168.991 111.412 168.708 111.694 168.002 111.694C167.86 111.694 167.578 111.834 167.436 111.834C167.012 111.975 166.588 112.256 166.164 112.397C166.023 112.679 165.881 113.101 165.316 113.241C164.892 113.523 164.467 113.663 164.467 113.241C164.326 113.241 164.043 113.101 164.043 113.241C164.185 114.086 163.337 113.663 162.912 113.804C162.771 113.663 162.63 113.663 162.488 113.523C162.347 113.523 162.206 113.663 162.064 113.663C161.782 113.804 161.64 114.226 161.216 114.367C161.075 114.367 161.216 114.086 161.216 113.945C160.792 114.508 159.802 114.648 159.378 115.211C159.378 115.352 159.378 115.493 159.378 115.633C159.096 115.493 158.813 115.493 158.53 115.352C158.247 115.352 157.965 115.493 157.682 115.493C156.975 115.774 156.268 116.055 155.561 116.337C155.279 116.477 154.996 116.337 154.855 116.618C154.289 117.744 154.43 116.477 154.148 116.759C154.006 116.759 153.865 116.759 153.865 116.759C153.158 116.9 152.734 117.462 152.027 117.603C151.603 117.462 151.32 117.884 150.755 118.166C151.32 117.322 151.038 116.477 152.734 116.477C153.017 116.196 153.582 116.337 153.724 115.915C153.582 115.915 153.441 115.915 153.441 115.915C153.017 116.055 153.017 115.915 153.017 115.633C152.875 115.633 152.734 115.774 152.593 115.774C152.027 116.337 151.038 116.337 150.331 116.759C150.189 116.759 150.189 116.618 150.189 116.477C150.189 116.618 150.331 116.759 150.331 116.759C150.189 116.9 150.048 117.181 149.907 117.322C149.483 117.462 149.624 117.603 149.907 117.744C150.896 117.603 150.048 118.307 150.189 118.588C149.907 118.447 149.624 118.307 149.341 118.166C149.2 118.307 149.058 118.307 148.917 118.447C147.928 118.869 146.938 119.291 145.807 119.291C145.948 119.573 145.524 119.854 145.242 120.136C145.242 120.417 145.1 120.558 144.676 120.698C144.535 120.839 144.393 120.98 144.252 121.121C144.535 121.965 145.1 122.668 144.252 123.653C144.535 124.216 144.252 124.919 144.393 125.623C144.393 126.326 143.687 125.904 143.404 126.045C143.404 126.186 143.404 126.326 143.404 126.467C143.828 127.452 143.545 127.733 141.849 128.015C141.566 128.156 141.142 128.296 140.859 128.437C140.152 128.859 139.446 129 138.739 129.14C138.315 129.422 137.891 129.563 137.466 129.703C136.477 130.407 135.346 130.407 134.215 130.829C134.074 131.11 133.65 131.11 133.367 131.251C132.801 131.532 132.236 131.673 131.67 131.673C130.964 131.954 130.398 132.377 129.55 132.377V132.236C129.55 132.236 129.691 132.236 129.691 132.095C129.55 132.095 129.55 132.095 129.409 132.236C129.55 132.236 129.55 132.236 129.55 132.377C128.136 132.939 126.581 133.502 125.168 133.643C125.026 133.784 124.885 133.784 124.743 133.784C124.602 133.924 124.319 134.065 124.178 134.065C123.047 134.206 121.916 134.909 120.785 135.05C120.644 135.05 120.644 135.05 120.644 135.05C120.502 135.05 120.502 135.05 120.361 135.191C119.937 135.331 119.654 135.331 119.23 135.472C118.806 135.613 118.523 135.753 118.099 135.894C117.392 136.035 116.827 136.457 116.12 136.457C115.555 136.738 114.848 136.738 114.141 137.02C113.434 137.301 112.869 137.583 112.02 137.723C112.727 137.16 113.434 136.879 114.141 136.598C115.979 135.753 117.958 135.472 119.796 134.487C119.937 134.346 120.361 134.487 120.644 134.487C121.492 133.784 122.482 133.924 123.33 133.643C125.874 132.658 128.419 131.673 130.964 130.97C132.236 130.547 133.65 130.125 134.922 129.422C134.922 129.281 134.78 129.281 134.78 129.14C134.639 129.14 134.498 129.281 134.215 129.281C133.508 129.422 132.801 129.844 131.953 129.985C131.953 129.985 131.812 130.125 131.812 129.985C131.953 129.844 131.953 129.844 132.094 129.703C132.094 129.844 132.094 129.844 131.953 129.985C130.539 130.547 128.984 130.97 127.571 131.251C127.005 131.532 126.581 131.814 126.016 131.814C125.733 131.954 125.45 131.954 125.168 132.095H125.026C124.602 132.236 124.178 132.377 123.754 132.377C123.047 132.658 122.199 133.08 121.351 133.08C121.351 132.658 121.633 132.517 122.057 132.236H121.916C121.775 131.954 121.775 131.673 121.351 131.673C120.502 131.673 119.796 132.517 118.806 132.377C118.523 132.517 118.382 132.799 118.099 132.658C117.675 132.939 117.11 132.517 116.827 133.08C116.544 133.361 116.686 133.502 116.686 133.784C117.11 134.065 117.675 133.784 118.241 133.502C118.665 133.221 119.23 133.08 119.796 132.939C119.937 132.939 120.361 132.799 120.361 132.939C120.361 133.221 119.937 133.221 119.654 133.361C119.23 133.361 118.665 133.643 118.382 133.924C117.675 134.206 116.968 134.346 116.12 134.628C115.696 134.768 115.272 135.05 114.565 135.05C115.13 134.768 115.13 134.346 115.837 134.487C116.12 134.346 116.403 134.206 116.544 134.065C115.837 133.924 115.272 133.784 114.565 133.643C114.565 133.784 114.424 133.784 114.424 133.924C114.424 134.206 114.282 134.346 114 134.487C114 135.472 113.151 135.472 112.162 135.472C111.596 136.175 110.607 136.035 109.9 136.175C109.476 136.316 109.9 135.753 109.759 135.613C109.617 135.472 109.334 135.613 109.193 135.613V135.753C109.334 136.035 109.476 136.175 108.91 136.457C108.769 136.738 108.628 136.738 108.345 136.598C107.779 136.738 107.214 137.02 106.648 136.879C106.224 136.879 105.8 137.442 105.376 137.301C104.952 137.442 104.669 137.723 104.245 137.583C103.962 137.723 103.68 137.864 103.397 137.723C103.256 137.864 103.114 138.005 102.973 138.145C101.701 138.567 100.287 138.427 99.0147 138.99C98.8733 138.427 97.7423 138.708 97.601 138.286C97.3183 138.286 97.0355 138.567 96.8942 138.427C96.7528 138.286 97.1769 138.145 97.3182 138.005C98.3078 137.583 99.2974 137.442 100.287 137.301C100.711 137.16 100.994 136.879 101.418 137.02C101.983 136.738 102.549 136.598 102.973 136.598C103.68 136.316 104.245 135.753 104.952 136.035C105.518 135.753 105.942 135.472 106.507 135.472C106.79 135.472 107.214 135.331 107.497 135.331C107.921 134.909 108.345 134.909 108.628 135.331C108.91 135.191 109.334 134.909 109.617 134.768C109.9 134.346 110.607 134.768 111.031 134.346C111.031 134.206 110.889 134.065 110.889 133.924C110.465 133.924 110.324 133.643 110.041 133.502C109.9 133.502 109.759 133.643 109.617 133.643C109.476 133.784 108.91 133.784 108.91 134.206C108.91 134.487 108.486 134.487 108.204 134.346C107.921 134.206 108.345 134.065 108.345 133.924C108.203 133.924 108.062 133.924 107.921 133.924C107.638 134.065 107.214 134.206 106.931 134.206C106.79 134.206 106.79 134.206 106.648 134.346C106.083 134.628 105.376 134.768 105.093 134.346H104.952C104.104 135.331 102.832 135.331 101.701 135.613C100.852 135.894 99.8628 136.175 99.0147 136.457C97.4596 136.879 95.9046 137.301 94.3495 137.864C94.4909 137.723 94.7737 137.723 95.0564 137.583C94.7737 137.583 94.6323 137.723 94.3495 137.864C93.9254 138.005 93.36 138.145 92.9359 138.286C91.9463 138.567 90.9567 138.99 90.1085 138.708C89.9672 138.708 89.9672 138.849 89.8258 138.849C89.8258 139.271 89.4017 139.412 88.9776 139.271C88.5535 139.13 89.119 138.99 89.119 138.849C88.8362 138.849 88.5535 138.99 88.1294 138.99C87.9881 138.99 87.8467 139.13 87.7053 139.13C87.2812 139.271 86.8571 139.552 86.2916 139.552C85.8675 139.693 85.4434 139.834 85.0193 139.974C84.3125 140.397 83.6057 140.537 82.7575 140.678C81.7679 140.819 80.7783 141.241 79.6474 141.522C79.2233 141.663 78.6578 141.522 78.3751 141.944C78.0924 141.944 78.0924 142.788 77.5269 142.226C77.2442 141.944 76.396 142.226 75.9718 142.507C74.9823 142.366 74.9823 142.648 74.4168 142.929C74.1341 142.788 74.5582 142.507 74.5582 142.366C74.4168 142.366 74.1341 142.507 73.9927 142.507C73.8514 142.648 73.71 142.929 73.5686 143.07C73.4272 143.351 73.0032 143.633 72.7204 143.492C72.155 143.351 73.2859 143.211 72.8618 142.929C72.7204 142.929 72.8618 142.788 72.7204 142.648C72.579 142.648 72.4377 142.788 72.1549 142.788C71.4481 143.351 70.7413 143.773 69.8931 143.492C69.6103 143.492 69.1862 143.492 68.9035 143.492C68.6208 143.633 68.338 143.633 68.0553 143.633C67.7726 143.773 67.3485 143.914 67.0657 144.195C65.6521 144.899 64.2384 145.321 62.6834 145.462C62.1179 145.602 61.6938 145.743 61.2697 145.743C60.987 145.743 60.5629 146.025 60.2801 145.743C59.1492 146.165 58.0183 146.587 56.746 146.728C56.0391 146.587 55.4737 147.15 54.7668 147.291C53.9186 147.432 53.2118 147.572 52.3636 147.572C51.7981 147.854 51.0913 148.416 50.6672 147.854C50.2431 148.276 49.819 148.416 49.3949 148.276C48.4053 148.698 47.4157 149.12 46.4262 149.261C46.0021 149.823 45.4366 150.105 44.7298 149.964C44.5884 149.542 45.2952 149.542 45.4366 149.261C45.1539 149.261 45.0125 149.12 44.7298 149.12C44.4471 149.12 44.1643 149.261 43.8816 149.261C43.8816 149.261 44.0229 149.261 44.0229 149.12V149.261C42.892 149.823 42.6093 149.542 42.3266 148.839C42.0438 148.135 42.892 147.713 43.5989 147.291C44.1643 147.15 45.0125 147.15 45.2952 146.728C44.8711 146.728 44.7298 146.587 45.0125 146.165C44.7298 145.18 46.1435 145.321 46.7089 144.899C46.7089 144.758 46.4262 144.758 46.2848 144.618C45.7193 144.477 45.8607 144.195 46.2848 143.773C46.8503 143.211 46.8503 143.773 47.133 143.914C47.2744 143.914 47.5571 144.055 47.6985 144.055C47.9812 144.055 48.264 144.055 48.4053 144.055C48.9708 143.773 49.6776 143.492 50.3845 143.492C50.5258 143.211 50.6672 143.07 50.8086 142.788C50.5258 142.788 50.3845 142.648 50.1017 142.648C49.5363 142.507 49.9604 142.366 50.2431 142.226C50.8086 141.944 51.2327 141.804 51.0913 141.241C50.9499 141.1 50.9499 140.959 50.6672 140.959C50.3845 141.804 49.3949 141.663 48.8294 141.804C49.1122 141.663 49.819 141.522 50.2431 141.241V141.1C49.3949 141.241 48.5467 141.381 47.5571 141.522C47.4157 142.085 47.133 142.507 46.1434 142.507C46.4262 142.085 47.2744 141.944 46.9917 141.522C46.7089 141.522 46.5675 141.522 46.4262 141.522C46.2848 141.522 46.0021 141.663 45.8607 141.663C45.4366 141.804 45.0125 142.085 44.4471 142.085C44.3057 142.226 44.1643 142.226 43.8816 142.366C42.6093 143.211 42.4679 142.507 42.1852 142.085C42.0438 142.085 41.9024 142.226 41.7611 142.226C40.9129 142.226 40.0647 142.648 39.2165 142.929C38.651 143.633 38.0856 143.211 37.5201 143.351C36.3891 143.633 35.2582 143.914 33.9859 144.055C35.6823 143.07 37.5201 142.788 39.3578 142.366C39.4992 142.085 39.782 141.944 40.2061 141.804C40.6302 141.663 41.1956 141.663 41.0542 141.1C40.7715 141.241 40.3474 141.381 40.0647 141.381C39.3579 141.663 38.651 142.085 37.8028 142.085C37.6614 142.085 37.3787 142.226 37.2373 142.226C36.6719 142.507 36.1064 142.788 35.3996 142.507C36.2478 142.226 37.2373 141.804 38.0855 141.522C38.651 141.241 39.4992 141.1 39.9233 140.537C39.7819 140.537 39.4992 140.537 39.3578 140.537C38.9337 140.819 38.651 140.819 38.2269 140.819C37.6614 141.381 37.096 141.522 36.5305 141.522C36.1064 141.522 35.965 142.085 35.5409 141.804C35.3996 141.804 35.3996 141.944 35.2582 141.944C34.8341 141.944 34.5514 142.648 34.1273 142.226C33.8445 142.366 33.5618 142.366 33.279 142.507C33.1377 142.929 32.855 143.211 32.4308 143.211C31.8654 143.211 32.2895 142.788 32.1481 142.648C31.724 142.929 31.4413 143.211 30.8758 143.211C30.5931 143.211 30.4517 143.211 30.169 143.211C30.0276 143.351 29.8863 143.351 29.6035 143.492C29.6035 143.492 29.6035 143.492 29.6035 143.633C29.1794 144.055 27.0589 144.618 26.4934 144.477C26.2107 144.618 25.928 144.618 25.6452 144.758C25.0798 145.18 24.5143 145.321 23.9488 144.899C24.2316 144.477 24.6557 144.618 24.9384 144.618C25.2211 144.477 25.5039 144.477 25.6452 144.336C26.0694 144.195 26.0693 143.914 26.2107 143.633C26.2107 143.633 26.2107 143.633 26.3521 143.633H26.2107C25.928 143.211 25.5039 143.633 25.0798 143.773C24.9384 144.195 24.3729 144.477 23.8075 144.618C23.3834 144.758 23.1007 145.321 22.5352 145.321C21.8284 145.462 21.2629 145.884 20.556 145.884C19.9906 146.025 19.4251 146.447 18.8596 146.447C18.2942 147.009 17.446 146.869 16.7391 147.15C16.1736 147.15 15.6082 147.432 15.0427 147.291C15.7496 147.15 16.315 146.869 17.0219 146.869C17.3046 146.728 17.446 146.728 17.7287 146.587C17.7287 146.165 18.0114 146.025 18.5769 146.025C19.001 145.884 19.4251 145.884 19.9906 145.743C20.1319 145.743 20.1319 145.743 20.2733 145.602C21.1215 145.18 21.8283 144.899 22.6765 144.477C22.5352 144.477 22.3938 144.477 22.2524 144.477C21.4042 144.899 20.556 144.899 19.7078 144.899C19.001 145.18 18.4356 145.462 17.5873 145.462C18.2942 144.899 18.8596 144.899 19.5665 144.758C20.8388 144.618 21.9697 143.914 23.242 143.773C24.3729 143.211 25.5039 143.633 26.6348 142.929C27.2003 142.366 27.9071 142.507 28.6139 142.366C28.7553 142.366 28.7553 142.366 28.8967 142.226C29.4622 142.085 29.8863 141.663 30.5931 141.944C31.0172 142.085 30.5931 142.226 30.5931 142.507C31.0172 142.648 31.4413 142.366 31.724 142.226L31.8654 142.085C32.9963 140.959 34.5514 140.819 35.965 140.256C37.5201 139.693 39.2165 139.271 40.7715 138.99C41.1956 138.849 41.6197 138.708 42.0438 138.708C43.5989 138.005 45.2953 137.583 46.8503 137.02C47.4158 136.879 47.9812 136.598 48.5467 136.316C48.4053 135.894 48.8294 135.894 49.2535 135.753C49.6776 135.613 49.9604 135.331 50.3845 135.472C50.6672 135.472 50.9499 135.331 51.2327 135.191C52.0808 134.909 52.7877 134.487 53.6359 134.487C53.7773 134.487 53.7773 134.346 53.9186 134.346C54.2014 133.784 54.2014 133.784 53.0704 133.924C51.7981 134.346 50.6672 134.909 49.2535 135.05C48.8294 135.191 48.5467 135.191 48.1226 135.191C47.6985 135.331 47.133 135.613 46.5675 135.613C45.7194 135.894 45.0125 136.035 44.1643 136.316C43.1747 136.598 42.1852 137.16 41.1956 137.301C39.9233 137.864 38.651 137.864 37.2373 138.427C36.3891 139.13 35.2582 139.13 34.2686 139.552C33.9859 139.552 33.7032 139.693 33.4204 139.693C33.1377 139.834 32.855 139.834 32.5722 139.834C32.0068 140.115 31.4413 140.115 30.8758 140.397C30.4517 140.819 29.8863 140.959 29.3208 141.1C28.8967 141.241 28.4726 141.241 28.1899 141.381C28.0485 141.381 27.7657 141.241 27.7657 141.1C28.0485 140.678 27.3417 140.678 27.0589 140.397C28.1899 140.537 29.3208 139.693 30.4517 139.834C31.0172 139.693 31.5827 139.412 32.1481 139.271C32.4308 139.13 32.7136 139.13 32.855 139.13C34.6927 138.567 36.5305 138.005 38.3683 137.442C39.4992 137.02 40.6301 136.598 41.7611 136.175H41.9024C41.7611 136.316 41.6197 136.316 41.4783 136.457C42.3265 136.457 42.892 136.035 43.7402 135.753C43.8816 135.753 43.8816 135.753 44.0229 135.613C45.578 135.05 46.7089 134.487 47.9812 134.768C48.1226 134.768 48.1226 134.768 48.264 134.768C49.2535 133.924 50.6672 133.502 51.7981 132.799C51.9395 132.658 52.0808 132.517 52.2222 132.377C51.2327 132.377 50.2431 132.939 49.1122 133.221C48.264 133.361 47.2744 133.784 46.4262 133.924C46.0021 134.065 45.4366 134.206 44.8712 134.487C45.2953 133.784 45.8607 133.924 46.4262 133.784C47.8399 133.221 49.3949 132.799 50.8086 132.377C51.374 131.954 52.0809 131.814 52.505 131.392C52.6463 131.392 52.7877 131.251 52.7877 131.251C52.7877 131.11 52.7877 130.829 52.7877 130.688C51.7981 130.97 50.8085 131.11 49.6776 131.392C49.5362 131.392 49.5363 131.392 49.5363 131.251C49.6776 130.829 50.3845 130.97 50.6672 130.688C50.1017 130.688 49.6776 130.407 49.2535 130.266C48.4053 130.266 47.6985 130.97 46.7089 131.11C46.0021 131.251 46.1434 130.97 46.2848 130.688C45.7193 130.829 45.1539 130.97 44.5884 131.11C43.5989 131.673 42.4679 131.532 41.4783 131.814C41.0542 132.236 40.7715 132.236 40.3474 131.954C40.7715 131.814 41.1956 131.673 41.4783 131.532C42.7506 131.11 44.0229 130.547 45.2952 130.125C45.2952 130.266 45.1539 130.266 45.0125 130.407C45.0125 130.407 45.0125 130.407 45.1539 130.407C45.1539 130.266 45.1539 130.266 45.2952 130.125C45.578 129.985 45.7194 129.703 46.0021 129.563C46.2848 129 47.2744 129 47.6985 128.578C47.133 128.718 46.7089 128.859 46.1434 129V128.859C47.133 128.578 47.9812 128.156 48.9708 127.874C49.9604 127.311 50.6672 126.608 51.9395 126.749C52.505 126.326 52.3636 125.764 52.9291 125.342C52.9291 125.06 53.3532 124.779 53.4945 124.497C53.2118 124.497 52.9291 124.357 52.6463 124.357C52.9291 123.935 53.3532 124.075 53.6359 124.075C54.06 123.935 54.4841 123.794 54.9082 123.512C54.7668 123.372 54.7668 123.231 54.6255 123.09C53.6359 123.512 52.929 122.809 52.0808 123.231C51.5154 123.372 50.9499 123.794 50.3845 123.653C49.819 123.794 49.2535 124.075 48.8294 124.216C48.1226 124.779 47.133 124.497 46.2848 124.919C45.578 124.779 45.1539 125.201 44.7298 125.482C44.3057 125.623 44.023 125.904 43.5989 125.764C43.5989 125.764 43.5989 125.764 43.5989 125.623C42.4679 125.764 41.4783 126.186 40.3474 126.608C39.6406 126.889 39.0751 127.171 38.3683 126.889C37.9442 127.03 37.6614 127.452 37.096 127.452C36.5305 127.593 35.9651 128.015 35.3996 127.874C35.2582 127.874 35.1168 128.015 34.8341 128.015C34.41 128.156 33.9859 128.296 33.5618 128.437C33.279 128.578 32.9963 128.718 32.855 128.578V128.437C33.1377 128.437 33.279 128.296 33.5618 128.296C34.5513 127.874 35.8237 127.733 37.096 127.452C37.6614 126.889 38.3683 127.03 39.0751 126.889C39.9233 126.326 41.0542 126.326 42.0438 125.764C42.4679 125.623 43.0334 125.342 43.4575 125.201C43.4575 125.06 43.5989 124.919 43.5989 124.779C43.3161 124.497 42.892 124.638 42.4679 124.779C42.0438 124.919 41.7611 125.342 41.337 125.201C40.9129 125.342 40.6302 125.482 40.2061 125.623C39.782 125.764 39.3579 125.904 38.9338 126.045C38.2269 126.326 37.6614 126.749 36.9546 126.608C36.9546 126.608 36.9546 126.608 36.9546 126.467C36.9546 126.467 36.9546 126.467 36.8132 126.467C36.1064 127.03 35.3996 127.452 34.6927 127.452C33.9859 127.874 33.4204 128.156 32.5722 128.015C33.2791 127.733 33.9859 127.452 34.5514 127.171C34.8341 127.03 34.6927 126.889 34.6927 126.749C35.2582 126.186 36.1064 126.045 36.9546 125.904C37.096 125.764 37.3787 125.764 37.3787 125.623C37.5201 125.342 37.2373 125.342 36.9546 125.482C36.2478 125.764 35.3996 125.904 34.6927 126.045C33.8445 126.467 33.1377 126.608 32.2895 126.749C31.4413 127.311 30.3104 127.593 29.3208 128.015C29.0381 128.437 27.9071 128.578 28.0485 129.281C28.3312 129.14 28.6139 129.14 28.7553 129C29.3208 128.718 29.8863 128.578 30.7345 128.296C29.8863 129.14 29.1794 129.281 28.3312 129.422C28.0485 129.563 27.6244 129.703 27.3416 129.703C26.0693 130.125 24.797 130.829 23.5247 130.97C23.242 131.11 22.9593 131.11 22.8179 131.251C21.2629 131.814 19.8492 132.517 18.2942 133.221C17.446 134.206 16.0323 134.206 14.9014 134.768C13.6291 135.472 12.3568 136.035 10.9431 136.175C10.519 136.175 10.6604 136.035 10.6604 135.894C10.519 135.753 10.3776 135.753 10.2363 135.613C10.0949 135.613 10.0949 135.613 9.95353 135.753C9.67079 135.894 9.52944 135.894 9.52944 136.175C8.8226 136.738 7.9744 137.02 6.84346 137.301C7.5503 136.598 8.53987 136.457 9.2467 136.175C8.68122 136.035 8.11576 136.598 7.55028 136.457C7.26755 136.598 6.98483 136.598 6.7021 136.738C5.85389 136.738 5.00569 137.16 4.15748 137.442C4.29885 137.442 4.5816 137.583 4.86433 137.583C3.45067 138.005 2.46109 138.849 0.906066 138.99C-0.224893 138.99 -0.0835196 138.708 0.199197 138.286C0.906035 138.005 1.47153 137.723 2.17837 137.723C3.02655 137.301 4.01614 137.16 4.86433 136.879C5.4298 136.598 5.99526 136.598 6.56072 136.457C6.84346 136.316 7.26755 136.175 7.55028 136.035C8.25712 135.613 8.96396 135.613 9.81215 135.331V135.472C9.81215 135.472 9.67078 135.331 9.81215 135.331C9.52942 134.487 10.2363 134.065 11.3672 133.643C12.2154 133.361 13.205 133.08 14.0532 132.799C15.8909 132.095 17.7287 131.392 19.5665 130.97C20.4147 130.688 21.2629 130.266 22.2524 129.985C22.3938 129.985 22.6765 129.985 22.8179 129.985C23.5247 129.703 24.2316 129 25.2211 129.14C24.797 129.563 24.2316 129.703 23.6661 129.844C23.5248 130.547 24.797 129.703 24.797 130.266C24.9384 130.266 25.2211 130.266 25.3625 130.266C26.0694 130.125 26.6348 129.703 27.3416 129.703C27.483 129.563 27.483 129.563 27.6244 129.422C27.483 129.14 27.3417 129 27.0589 128.859C26.9176 128.859 26.4934 129.14 26.4934 129C26.3521 128.859 26.6348 128.718 26.9175 128.578C27.7658 128.296 28.614 128.015 29.4622 127.733C29.7449 127.593 30.3103 127.452 30.8758 127.171C32.1481 126.326 33.5618 126.045 35.1168 125.764C35.3996 125.623 35.6823 125.623 35.8237 125.482C35.6823 125.201 36.3891 124.919 35.8237 124.779C35.5409 124.919 35.1168 124.919 34.8341 125.06C34.6927 125.201 34.41 125.201 34.2686 125.342C33.5618 125.342 32.9963 125.764 32.2895 125.904C30.4517 126.467 28.614 127.171 26.9175 127.733C26.6348 127.874 26.2107 128.015 25.928 128.156C25.6453 128.156 25.928 128.015 26.0694 127.874C27.6244 127.03 29.1794 126.467 30.8758 125.904C31.2999 125.764 32.0068 125.623 32.4308 125.342V125.201C32.4308 125.201 32.4308 125.06 32.2895 125.06C31.724 125.201 31.1586 125.342 30.5931 125.482C30.3104 125.623 30.0276 125.623 29.7449 125.764C29.038 125.904 28.3312 126.608 27.7657 126.186C27.3417 126.326 26.9175 126.326 26.4934 126.467C26.2107 126.608 26.0694 126.608 26.0694 126.326C27.3417 125.904 28.6139 125.201 29.8862 125.06C30.3104 124.779 30.5931 124.779 31.0172 124.779C31.724 123.935 32.855 123.794 33.8445 123.372C35.6823 122.528 37.6614 121.402 39.7819 121.683C39.9233 121.543 39.9233 121.543 40.0647 121.402C40.3474 120.698 41.337 120.98 41.7611 120.417C41.4783 120.558 41.1956 120.558 40.9129 120.698C40.7715 120.417 41.1956 120.417 41.4783 120.417C42.0438 120.136 42.7506 119.714 43.0334 120.417C43.1747 120.276 43.4575 120.276 43.5989 120.136C43.5989 119.573 44.3057 119.432 44.7298 119.291C44.8712 119.291 44.8712 119.151 44.8712 119.151C44.8712 119.01 44.7298 118.869 44.4471 118.869C44.1643 119.151 43.8816 119.151 43.5989 119.01C43.4575 119.151 43.4575 119.432 43.1747 119.432C42.892 119.432 42.892 119.291 42.7506 119.151C42.1852 119.432 41.6197 119.714 41.0542 119.714C40.6302 119.854 40.2061 119.995 39.7819 120.136C37.9442 120.839 36.1064 121.261 34.2686 121.824C33.9859 121.965 33.7032 121.965 33.4204 122.105C32.1481 122.387 30.8758 123.231 29.6035 123.372C29.1794 123.512 29.038 123.512 28.8967 123.231C28.6139 123.512 28.3312 123.794 27.7657 123.653C27.0589 124.216 26.0694 124.075 25.3625 124.497C25.0798 124.919 24.9384 124.779 24.797 124.497C24.5143 124.638 24.2316 124.638 23.8075 124.779C24.0902 124.357 24.373 124.216 24.797 124.075C24.9384 124.075 25.0798 124.075 25.0798 124.075C25.7866 123.935 26.3521 123.512 26.9175 123.231C27.483 122.95 28.0485 122.95 28.4726 122.528C28.1898 122.528 28.0485 122.528 27.9071 122.528C30.5931 121.543 33.4204 120.417 36.2478 119.432C36.1064 119.151 35.965 118.869 36.2478 118.447C36.1064 118.447 35.8237 118.447 35.6823 118.447C35.1168 118.588 34.6927 118.729 34.1273 118.729C33.8445 118.869 33.4204 119.01 33.1377 119.01C32.4309 119.291 31.724 119.573 31.0172 119.854C30.8758 119.573 31.4413 119.573 31.4413 119.432C31.1586 119.573 30.8758 119.573 30.5931 119.714C30.169 119.854 29.7449 119.995 29.1794 120.276C29.3208 119.854 29.6035 119.714 30.0276 119.573C30.5931 119.291 31.2999 119.151 31.8654 118.447C31.8654 118.869 31.8654 119.01 31.8654 119.291C32.5722 119.291 33.1377 118.869 33.7032 118.588V118.447C33.1377 118.166 33.5618 117.884 33.9859 117.884C34.5514 117.884 34.8341 117.462 35.2582 117.322C35.5409 117.884 34.5513 117.884 34.41 118.166C34.8341 118.729 35.5409 118.166 36.2478 118.025C37.2373 117.462 38.3683 117.603 39.3578 117.322C39.4992 117.322 39.4992 117.181 39.6406 117.181C39.7819 117.04 40.0647 116.759 40.0647 116.618C41.4784 116.477 42.4679 115.493 43.7402 115.211C45.1539 114.508 46.4262 113.945 47.8399 113.382C48.8294 112.679 49.9604 112.538 50.9499 111.975C51.2327 111.553 51.9395 111.412 52.505 111.131C52.7877 110.849 52.7877 110.709 52.3636 110.709C50.1017 111.553 47.8399 112.538 45.578 113.382C45.1539 113.523 44.7298 113.804 44.3057 113.804C44.1643 113.804 44.023 113.945 43.7402 113.945C43.4575 114.367 42.892 114.367 42.4679 114.648C41.9025 114.93 41.1956 115.07 40.6301 115.352C40.3474 115.493 40.2061 115.633 39.9233 115.774C38.9338 116.196 37.8028 116.618 36.6719 116.9C37.6614 116.055 38.651 115.352 40.0647 115.211C40.4888 114.508 41.4784 114.648 42.1852 114.226C42.3266 113.804 42.892 113.804 43.1747 113.663C44.0229 112.679 45.2952 112.538 46.4262 112.116C46.9916 111.834 47.6985 111.694 48.264 111.553C48.4053 111.553 48.5467 111.412 48.688 111.412C49.3949 110.849 50.3845 110.568 51.2327 110.146C51.7981 109.865 52.3636 109.442 52.7877 109.02C52.6463 109.02 52.3636 109.02 52.2222 109.02C51.6567 109.302 51.0913 109.442 50.5258 109.724C50.2431 109.442 50.9499 109.161 50.6672 108.88H50.5258C49.819 109.02 48.9708 109.302 48.1226 109.583C48.6881 108.88 49.3949 108.88 50.1017 108.88C50.1017 108.739 49.9604 108.598 49.6776 108.458C47.5571 108.88 45.2952 109.161 43.1747 109.865C42.4679 110.146 41.6197 110.287 40.9129 110.568C40.4888 110.849 40.2061 110.849 39.7819 110.849C39.0751 111.272 39.4992 111.694 39.2165 112.116C38.651 112.96 38.2269 113.241 37.2373 112.96C36.2478 113.241 35.1168 113.101 33.9859 113.382C32.5722 113.804 31.1585 114.086 29.8862 114.508C29.4621 114.648 29.1794 114.648 28.8967 114.508C28.6139 114.508 28.3312 114.508 28.0485 114.508C27.9071 114.508 27.7657 114.648 27.483 114.648C27.2003 114.789 27.0589 115.07 26.7762 115.211C27.2003 115.493 27.6244 114.789 28.0485 114.93C27.0589 115.915 25.928 115.633 24.797 115.915C23.3834 116.477 21.8283 117.04 20.4147 117.603C20.9801 116.759 21.9697 116.618 22.9593 116.477C22.5352 116.055 21.8283 116.477 21.5456 116.196C21.1215 116.337 20.5561 116.477 20.1319 116.477C18.7183 116.9 17.5873 117.884 16.0323 118.025C15.3255 118.025 14.76 118.307 14.0532 118.588C12.2154 119.151 10.3776 119.432 8.68122 119.854C8.53985 119.854 8.39849 119.995 8.11576 119.995C7.26756 120.276 6.41935 120.558 5.57115 120.417C5.14706 120.839 4.72294 120.839 4.0161 120.839C4.44021 120.558 4.86432 120.417 5.28842 120.276C6.27799 119.714 7.26756 119.714 8.25713 119.432C9.2467 118.869 10.2363 118.729 11.3672 118.447C11.5086 118.447 11.5086 118.447 11.6499 118.307C12.6395 117.884 13.6291 117.603 14.6186 117.181C14.76 116.9 15.6082 116.618 14.9014 116.337C14.0532 116.477 13.4877 117.04 12.6395 117.04C12.3568 117.181 12.074 117.181 11.6499 117.04C12.074 116.9 12.4981 116.759 12.7809 116.618C14.1945 116.337 15.4668 115.352 16.8805 115.07C17.3046 114.93 17.7287 114.648 18.1528 114.508C17.5873 114.226 17.0219 114.648 16.4564 114.789C15.7496 115.07 14.9014 115.493 14.0532 115.493C14.76 115.07 15.4668 114.648 16.315 114.648C17.1632 114.648 17.7287 114.086 18.4355 114.367C19.2837 114.086 19.9906 113.804 20.8388 113.523C21.2629 113.101 21.687 113.101 22.1111 113.101C22.5352 112.96 22.8179 112.679 23.242 112.819C23.9489 112.679 24.797 112.538 25.5039 112.397C25.5039 112.538 25.3625 112.538 25.2211 112.679C25.3625 112.679 25.5039 112.538 25.5039 112.397C25.928 111.834 26.4935 111.694 27.2003 111.694C27.6244 111.553 28.0485 111.412 28.4726 111.272C29.038 110.99 29.8863 110.849 30.3104 110.427C29.7449 110.427 29.3208 110.568 28.7553 110.568C27.3416 111.131 25.928 111.272 24.5143 111.272C24.0902 111.412 23.8075 111.553 23.3834 111.412C23.1007 111.412 22.8179 111.553 22.5352 111.553C21.9697 111.834 21.4042 111.834 20.9801 111.553C20.5561 111.694 20.2733 111.694 19.8492 111.834C17.3046 112.397 14.76 113.523 12.074 113.945C10.6603 114.226 9.38806 114.508 8.11576 114.93C8.8226 114.508 9.10531 113.945 9.67078 113.382C10.0949 112.96 10.6604 112.819 11.2258 112.679C11.2258 112.679 11.3672 112.538 11.5086 112.538C11.9327 111.975 12.2154 111.412 13.205 111.272C13.4877 110.99 13.6291 110.849 13.9118 110.568C14.4773 109.724 15.4668 109.442 16.315 109.02C16.4564 108.88 16.7391 108.88 16.8805 108.739C17.0219 108.739 17.3046 108.739 17.446 108.739C18.0114 108.598 18.4356 108.458 19.001 108.598C20.4147 108.035 21.9697 107.613 23.3834 107.332C25.0798 106.769 26.6348 106.206 28.3312 105.784C28.7553 105.362 29.3208 105.362 29.8862 105.221C30.3104 104.94 30.8758 104.799 30.5931 104.377C30.3104 103.814 29.3208 104.659 28.8967 104.377C29.6035 104.236 30.169 103.955 30.7345 103.814C32.0068 103.533 32.5722 102.689 33.5618 102.267C33.5618 102.126 33.5618 102.126 33.5618 101.985C32.855 101.282 33.7032 100.438 33.5618 99.5934C33.5618 99.4527 33.5618 99.4527 33.5618 99.312C33.4204 97.7643 33.4204 97.7643 35.8237 97.0608C36.6719 96.498 37.3787 95.6538 38.651 95.6538C39.2165 95.091 39.9233 94.8096 40.7715 94.6689C41.4783 94.6689 42.0438 94.3875 42.4679 93.8247C42.4679 93.684 42.3266 93.684 42.3266 93.5433C42.0438 93.684 41.7611 93.684 41.6197 93.5433L41.7611 93.2619C42.0438 93.2619 42.1852 93.2619 42.3266 93.4026C42.4679 93.4026 42.7506 93.2619 42.892 93.2619C43.0334 93.2619 43.1747 93.1212 43.1747 93.1212C42.892 92.5584 42.892 91.8549 42.1852 91.4328C41.9024 91.4328 41.6197 91.4328 41.337 91.5734C40.7715 91.8549 40.2061 91.9956 39.6406 91.9956C38.2269 92.6991 36.8132 92.6991 35.5409 93.1212C34.5514 93.4026 33.5618 93.5433 32.7136 93.684C32.2895 93.8247 31.8654 93.8247 32.4308 93.4026C32.9963 92.9805 33.7032 92.8398 34.41 92.5584C35.6823 92.1363 36.9546 91.8549 38.2269 91.1514C38.0855 91.1514 37.8028 91.1514 37.6614 91.1514C35.5409 91.5735 33.5618 91.9956 31.4413 92.5584C30.7345 92.6991 30.169 93.1212 29.4622 93.1212C29.6035 93.1212 29.6035 92.9805 29.7449 92.9805C29.7449 93.1212 29.6035 93.1212 29.4622 93.1212C28.8967 93.2619 28.1899 93.684 27.6244 93.5433C27.2003 93.684 26.6348 93.9654 26.2107 93.9654C26.0693 93.9654 26.0694 93.9654 25.928 93.9654C24.5143 94.3875 22.9593 94.8096 21.5456 95.2317C21.1215 95.5131 20.5561 95.5131 20.1319 95.5131C21.4042 95.091 22.6765 94.5282 23.9488 94.1061C24.797 93.5433 25.6452 93.2619 26.6348 93.1212C27.2003 92.9805 27.6244 92.6991 28.1899 92.5584C27.9071 92.1363 27.2003 92.6991 26.6348 92.5584C26.4934 92.5584 26.2107 92.6991 26.0694 92.6991C25.3625 92.9805 24.5143 93.1212 23.8075 93.2619C22.9593 93.4026 22.1111 94.1061 21.4042 93.5433C20.9801 93.8247 20.5561 94.1061 19.9906 94.1061C19.8492 94.1061 19.8492 94.1061 19.7078 94.1061C18.8596 94.3875 18.0114 94.6689 17.1632 94.6689C17.0219 94.6689 17.0219 94.6689 16.8805 94.8096C16.1737 95.091 15.3255 95.2317 14.6186 95.2317C14.3359 95.2317 14.0532 95.3724 13.7704 95.3724C12.9222 95.5131 12.074 95.9352 11.2258 95.9352C10.9431 96.0759 10.6604 96.0759 10.3776 96.0759C9.81217 96.2166 9.24669 96.6387 8.68122 96.498C5.14705 97.0608 5.28842 97.0608 5.42978 94.5282C5.57115 94.1061 5.99525 93.9654 6.27798 93.5433C6.41935 92.4177 7.26756 92.277 7.9744 92.277ZM4.0161 137.442C4.0161 137.442 4.15748 137.442 4.15748 137.583C4.15748 137.583 4.15748 137.583 4.0161 137.442ZM15.6082 134.206H15.4668H15.3255C15.4668 134.206 15.6082 134.206 15.6082 134.206ZM32.2895 139.552C32.4308 139.552 32.4308 139.412 32.2895 139.552C32.4308 139.412 32.2895 139.412 32.2895 139.552ZM123.895 133.784C123.754 133.784 123.754 133.784 123.754 133.643C123.612 133.784 123.754 133.924 123.895 133.784ZM29.4622 86.0861C29.6035 86.0861 29.6035 86.0861 29.4622 86.0861V86.0861ZM17.8701 111.412C17.8701 111.412 17.7287 111.412 17.7287 111.553C17.7287 111.412 17.7287 111.412 17.8701 111.412ZM44.3057 92.8398C44.5884 92.9805 44.8711 92.6991 45.2952 92.5584C45.578 92.4177 46.0021 92.277 46.2848 92.277C46.8503 92.1363 47.4157 91.9956 47.8399 92.1363C47.8399 92.1363 47.8399 92.1363 47.8399 91.9956C48.264 91.7142 48.5467 91.5735 48.9708 91.4328C49.1122 91.4328 49.1122 91.4328 49.2535 91.4328C49.6776 91.0107 50.2431 91.0107 50.8086 91.0107C51.5154 90.5885 52.2222 90.3071 52.7877 89.885C53.0704 89.7443 53.2118 89.4629 53.4945 89.3222C52.6463 89.3222 51.7981 89.7443 50.9499 89.885C49.2535 90.4478 47.4158 90.87 45.7194 91.4328C45.1539 91.5735 44.7298 91.8549 44.1643 91.9956C43.8816 92.1363 44.0229 92.4177 44.0229 92.5584C44.3057 92.6991 44.3057 92.6991 44.3057 92.8398ZM29.3208 92.277C29.4622 92.1363 29.4622 92.1363 29.3208 92.277C29.4622 92.1363 29.3208 92.1363 29.3208 92.277ZM14.76 91.9956H14.6186C14.6186 92.1363 14.6186 92.1363 14.76 91.9956C14.6186 92.1363 14.76 92.1363 14.76 91.9956ZM241.512 7.29387C241.512 7.29387 241.371 7.29387 241.371 7.43457C241.371 7.43457 241.512 7.43457 241.512 7.29387C241.512 7.43457 241.512 7.43457 241.512 7.29387ZM248.157 23.3337C248.298 23.4744 248.298 23.4744 248.157 23.3337C248.298 23.3337 248.298 23.3337 248.157 23.3337ZM123.471 129.985C123.188 129.985 123.047 129.985 122.764 129.985C123.047 129.844 123.188 129.844 123.471 129.985ZM90.5326 136.598C90.5326 136.738 90.3913 136.879 90.2499 137.02C90.3913 136.738 90.3913 136.598 90.5326 136.598ZM35.8237 140.819C35.965 140.678 36.2478 140.678 36.3891 140.678C36.2478 140.678 35.965 140.819 35.8237 140.819ZM31.0172 88.9001H30.8758C30.8758 88.9001 30.8758 89.0408 31.0172 89.0408C31.0172 89.0408 31.0172 89.0408 31.0172 88.9001ZM143.404 32.4792C143.121 32.6199 142.98 32.7607 142.697 32.7607C142.556 32.7607 142.414 32.9014 142.273 32.9014C141.849 33.042 141.425 33.1827 141.001 33.4641C140.294 33.7456 139.728 34.3084 139.021 34.0269C139.021 34.0269 139.021 34.027 139.021 33.8863C138.456 34.027 138.173 34.4491 137.608 34.5898C137.466 34.7304 137.325 35.0119 137.184 35.1526C136.618 35.5747 136.053 35.2933 135.487 35.5747C135.205 35.7154 135.063 35.7154 134.78 35.7154C134.356 35.9968 134.074 36.2782 133.508 36.2782C133.367 36.4189 133.084 36.5596 132.943 36.7003H132.801C132.801 36.841 132.66 37.1224 132.519 37.2631C132.519 37.1224 132.377 36.9817 132.377 36.841H132.236C131.529 37.1224 130.964 36.9817 130.398 37.1224C129.409 37.4038 128.56 37.8259 127.712 38.248C127.571 38.248 127.429 38.3887 127.288 38.3887H127.147C127.005 38.5294 127.005 38.5294 126.864 38.6701C127.288 38.6701 127.571 38.5294 127.995 38.5294C129.55 37.9666 128.56 38.9515 128.56 39.2329L128.702 39.3736C128.843 39.3736 128.843 39.3736 128.984 39.3736C129.409 39.0922 129.833 38.8108 129.833 38.3887C130.257 37.8259 130.822 37.9666 131.388 37.8259C131.529 37.2631 131.953 37.1224 132.519 37.2631L132.66 37.4038C133.367 37.4038 134.498 36.7003 134.215 37.8259C134.639 37.8259 135.205 38.1073 135.629 37.5445C135.629 37.4038 135.77 37.2631 136.053 37.2631C136.335 36.9817 136.901 36.9817 137.325 36.7003C137.749 36.5596 138.173 36.4189 138.597 36.2782C139.163 35.7154 139.446 35.9968 139.728 36.1375C140.011 35.9968 140.011 35.8561 140.011 35.7154C139.87 35.5746 139.587 35.434 139.446 35.2933C139.446 35.1526 139.587 35.1526 139.587 35.0119C139.87 34.8712 140.011 35.1526 140.294 35.1526C140.435 35.1526 140.718 35.1526 140.859 35.1526C141.849 34.7304 142.697 33.8863 143.828 33.6049C144.252 33.4641 144.818 33.6049 144.959 33.0421C144.959 32.9014 145.666 33.1827 145.948 32.9014C146.231 32.6199 146.373 32.3386 146.655 32.0571C146.514 32.0571 146.514 32.0571 146.655 31.9164C146.231 32.0571 145.948 31.9164 145.666 31.9164C145.524 31.9164 145.242 32.0571 145.1 32.1978C144.676 32.3385 144.393 32.4792 143.969 32.4792C143.969 32.4792 143.969 32.4792 143.969 32.3385C143.687 32.4792 143.545 32.4792 143.404 32.4792ZM206.736 20.6604C206.878 20.6604 206.878 20.6604 206.736 20.6604V20.6604ZM47.2744 145.462C47.2744 145.602 47.2744 145.602 47.2744 145.462V145.462ZM87.5639 54.2878C87.5639 54.1471 87.5639 54.1471 87.5639 54.2878V54.2878ZM228.224 11.2335C228.083 11.2335 228.083 11.2335 228.224 11.2335C228.083 11.3742 228.083 11.3742 228.224 11.2335ZM252.539 62.5892C252.398 62.5892 252.398 62.4485 252.256 62.4485C252.256 62.4485 252.398 62.5892 252.539 62.5892ZM89.8258 135.331C89.9672 135.331 89.9672 135.331 90.1085 135.331C90.1085 135.331 89.9672 135.331 89.8258 135.331ZM33.9859 107.051C33.8445 107.051 33.7032 107.051 33.7032 107.191C33.8445 107.051 33.9859 107.051 33.9859 107.051ZM31.8654 108.035C31.8654 108.176 31.8654 108.176 31.8654 108.035C32.0068 108.176 32.0068 108.035 31.8654 108.035ZM46.1434 81.5837C46.1434 81.5837 46.0021 81.5837 45.8607 81.5837C46.0021 81.5837 46.0021 81.5837 46.1434 81.5837ZM155.561 28.821C155.42 29.1024 155.279 29.1024 154.996 29.1024C154.713 29.3838 154.43 29.5245 154.148 29.5245C154.006 29.5245 153.865 29.6652 153.582 29.6652C153.3 29.8059 153.017 29.9466 153.017 30.228C153.017 30.3687 152.875 30.5094 152.734 30.6501C152.31 31.3536 151.32 31.4943 150.614 31.7757C150.755 32.0571 150.896 32.1979 150.614 32.62L150.755 32.7607C151.32 32.4793 152.027 32.6199 152.451 31.9164C152.875 32.1979 152.31 32.6199 152.593 32.9014L152.734 33.0421C153.017 33.0421 153.158 33.1828 153.158 33.3235C153.441 33.3235 153.724 33.3235 153.724 33.3235C154.855 31.9165 156.975 31.9164 158.389 31.0722C158.53 30.6501 158.247 30.6501 157.682 30.7908C157.116 30.9315 156.551 31.0722 155.985 31.2129C155.42 31.3536 154.855 31.635 154.43 31.7757C154.148 31.7757 153.865 31.7757 153.865 31.7757C154.006 31.4943 154.43 31.4944 154.855 31.4944C154.996 31.4944 155.137 31.3536 155.279 31.3536C155.985 30.6501 156.834 30.228 157.823 30.228C158.106 30.228 158.247 30.0873 158.53 29.9466C158.954 29.6652 159.237 29.2431 159.52 29.9466C159.802 30.5094 160.368 29.8059 160.792 29.5245C161.216 28.9617 161.357 28.3989 162.206 28.3989C162.63 28.2582 163.054 27.9768 163.619 28.1175C164.043 28.1175 164.185 27.8361 164.609 27.5547C164.609 27.414 164.75 27.414 164.75 27.2733C164.75 26.9919 164.609 26.7105 164.043 26.8512C163.619 26.8512 163.337 26.9919 162.912 27.2733C162.771 27.2733 162.488 27.2733 162.347 27.2733C162.206 27.2733 161.923 27.414 161.782 27.414C161.216 27.6954 160.651 27.8361 160.085 28.1175C159.378 28.3989 159.52 28.1175 159.661 27.8361C159.237 27.8361 158.813 27.8361 158.389 27.9768C158.247 27.9768 158.247 28.1175 158.106 28.1175C157.823 28.2582 157.541 28.2582 157.258 28.3989C157.116 28.3989 156.975 28.3989 156.834 28.3989C156.41 28.5396 155.985 28.6803 155.561 28.821ZM49.6776 115.352C49.819 115.352 49.9604 115.211 50.1017 115.211C49.9604 115.352 49.819 115.352 49.6776 115.352ZM162.347 29.2431C162.347 29.1024 162.347 29.1024 162.347 29.2431H162.488C162.347 29.1024 162.347 29.1024 162.347 29.2431ZM201.506 8.98227C201.506 9.12297 201.506 9.12297 201.506 8.98227V8.98227ZM63.2488 69.0614C63.3902 69.0614 63.5316 69.0614 63.6729 69.0614C63.6729 68.9207 63.5316 68.9207 63.5316 68.9207C63.3902 69.0614 63.2488 69.0614 63.2488 69.0614ZM165.598 27.8361C165.598 27.6954 165.598 27.6954 165.598 27.8361V27.8361ZM110.324 46.9714C110.324 47.1121 110.183 47.1121 110.324 46.9714V46.9714ZM145.666 39.5143C145.666 39.3736 145.666 39.3736 145.666 39.5143V39.5143ZM124.602 47.1121C124.461 47.1121 124.461 47.1121 124.319 47.2528C124.319 47.2528 124.461 47.1121 124.602 47.1121ZM239.816 56.2576C239.957 56.2576 239.957 56.2576 239.816 56.2576V56.2576ZM127.147 122.95H127.005C127.005 122.95 127.005 122.95 127.147 122.95ZM153.724 35.9968C153.724 36.1375 153.724 36.1375 153.724 35.9968V35.9968ZM113.434 46.69C113.717 46.5493 113.858 46.69 113.858 46.8307C113.858 46.8307 113.717 46.69 113.434 46.69ZM65.228 134.909C65.3693 134.768 65.6521 134.768 65.9348 134.628C65.6521 134.768 65.5107 134.768 65.228 134.909ZM156.551 35.1526C156.268 35.434 155.844 35.5747 155.42 35.5747C155.844 35.434 156.268 35.2933 156.551 35.1526ZM111.738 46.4086C111.596 46.4086 111.596 46.4086 111.455 46.4086C111.596 46.4086 111.738 46.4086 111.738 46.4086ZM84.4539 63.152C84.4539 63.152 84.3125 63.152 84.3125 63.2927C84.3125 63.152 84.3125 63.152 84.4539 63.152ZM242.219 65.966C242.502 65.6846 242.219 65.6846 242.078 65.5439C242.078 65.8253 242.219 65.966 242.219 65.966ZM142.414 39.5143C142.556 39.655 142.414 39.655 142.414 39.5143V39.5143ZM129.126 43.1725V43.3132C128.984 43.3132 129.126 43.3132 129.126 43.1725ZM185.248 15.8766C185.248 16.0173 185.107 16.0173 185.107 16.0173C185.248 16.0173 185.248 16.0173 185.248 15.8766ZM125.168 42.0469H125.026C125.168 42.0469 125.168 42.0469 125.168 42.0469ZM62.542 70.4684C62.4007 70.6091 62.2593 70.6091 62.1179 70.4684C62.2593 70.4684 62.4007 70.4684 62.542 70.4684ZM51.0913 84.1163H50.9499C50.9499 84.1163 50.9499 84.1163 51.0913 84.1163ZM62.8247 135.613C62.8247 135.613 62.9661 135.613 62.9661 135.753C63.1075 135.753 62.9661 135.613 62.8247 135.613ZM109.617 127.874C109.759 127.874 109.759 127.874 109.617 127.874V127.874ZM131.812 122.95C131.67 122.95 131.67 122.95 131.812 122.95V122.95ZM141.425 116.196C141.566 116.055 141.707 116.055 141.849 116.055C141.707 116.055 141.566 116.196 141.425 116.196ZM225.538 16.5801C224.831 16.5801 224.548 16.4394 224.407 16.2987C224.69 16.4394 225.255 16.4394 225.538 16.5801ZM168.002 21.5046C168.002 21.6453 168.002 21.6453 168.002 21.5046C168.143 21.6453 168.002 21.6453 168.002 21.5046ZM91.0981 52.4587C91.2395 52.5994 91.0981 52.5994 90.9567 52.7401C91.0981 52.7401 91.0981 52.5994 91.0981 52.4587ZM82.192 60.4786C82.0506 60.6193 81.9093 60.76 81.7679 60.9008C81.9093 60.6193 82.0506 60.6193 82.192 60.4786ZM76.8201 63.7148C76.9614 63.7148 76.9614 63.7148 76.8201 63.7148V63.7148ZM76.8201 64.2776C77.2442 64.2776 77.2442 64.1369 77.2442 63.9962C77.1028 64.1369 76.9614 64.2776 76.8201 64.2776ZM47.4157 101.282C47.5571 101.282 47.5571 101.282 47.4157 101.282V101.282ZM49.5363 99.1713C49.3949 99.1713 49.3949 99.1713 49.5363 99.1713V99.1713ZM76.2546 138.145C76.2546 138.286 76.1132 138.286 76.2546 138.145V138.145ZM143.828 116.477C143.828 116.337 143.828 116.337 143.828 116.477C143.828 116.337 143.687 116.337 143.828 116.477ZM244.057 67.0916C244.198 66.9509 244.34 66.6695 244.622 66.6695C244.481 66.8102 244.198 66.9509 244.057 67.0916ZM230.627 13.344C230.769 13.2033 230.769 13.2033 230.91 13.0626C230.91 13.2033 230.769 13.2033 230.627 13.344ZM200.657 10.9521C200.516 10.8114 200.516 10.8114 200.657 10.9521V10.9521ZM58.301 68.78C58.1596 68.9207 58.1596 68.9207 58.0183 69.0614C58.0183 68.9207 58.1596 68.9207 58.301 68.78ZM48.688 85.3826C48.8294 85.3826 48.9708 85.3826 49.1122 85.3826C48.8294 85.3826 48.6881 85.2419 48.4053 85.1012C48.4053 85.2419 48.5467 85.2419 48.688 85.3826ZM48.4053 88.478C48.5467 88.478 48.5467 88.478 48.688 88.478C48.5467 88.478 48.4053 88.478 48.4053 88.478ZM49.3949 100.719C49.5363 100.719 49.5363 100.719 49.3949 100.719C49.3949 100.578 49.3949 100.578 49.2535 100.438C49.3949 100.578 49.3949 100.719 49.3949 100.719ZM245.329 36.4189H245.188C245.329 36.4189 245.329 36.4189 245.329 36.4189ZM236.282 12.2184C236.282 12.2184 236.14 12.2184 235.999 12.2184C236.14 12.2184 236.14 12.2184 236.282 12.2184ZM108.062 44.8609C108.062 44.7202 108.062 44.7202 108.062 44.8609V44.8609ZM106.366 45.8458V45.9865C106.507 45.8458 106.224 45.8458 106.366 45.8458ZM86.7157 60.338C86.8571 60.338 87.1398 60.1973 87.2812 60.338C87.1398 60.338 86.9985 60.338 86.7157 60.338ZM83.747 59.7751C83.6057 59.7751 83.6057 59.7751 83.4643 59.7751C83.4643 59.7751 83.6057 59.7751 83.747 59.7751ZM47.133 83.5535C47.133 83.5535 46.9917 83.5535 46.8503 83.5535C46.9917 83.5535 46.9917 83.5535 47.133 83.5535ZM40.2061 87.6338C40.0647 87.6338 40.0647 87.6338 40.2061 87.6338V87.6338ZM46.7089 89.6036C46.5675 89.6036 46.4262 89.6037 46.4262 89.4629C46.5675 89.6037 46.5675 89.6036 46.7089 89.6036ZM47.6985 116.196C47.5571 116.055 47.5571 116.196 47.4157 116.055C47.4157 116.055 47.5571 116.055 47.5571 116.196C47.5571 116.196 47.5571 116.196 47.6985 116.196C47.5571 116.196 47.5571 116.196 47.6985 116.196ZM53.7773 139.271C53.9186 139.271 53.9186 139.13 53.7773 139.271C53.9186 139.13 53.9186 139.13 53.7773 139.271C53.7773 139.13 53.7773 139.13 53.7773 139.271ZM120.361 129.281C120.22 129.281 120.22 129.281 120.361 129.281V129.281ZM144.818 117.181C144.959 117.181 145.1 117.04 145.242 117.181C145.1 117.04 144.959 117.04 144.818 117.181ZM145.383 115.915C145.383 115.774 145.383 115.774 145.383 115.915V115.915ZM248.157 50.3482C248.015 50.3482 248.015 50.3482 248.157 50.3482C248.157 50.4889 248.015 50.4889 248.157 50.3482C248.015 50.3482 248.157 50.4889 248.157 50.3482ZM210.836 21.2232C210.694 21.3639 210.694 21.3639 210.836 21.2232C210.836 21.3639 210.694 21.3639 210.836 21.2232ZM193.024 12.4998C192.882 12.4998 192.882 12.4998 193.024 12.4998V12.4998ZM136.194 37.6852C136.053 37.6852 136.053 37.6852 136.194 37.6852V37.8259C136.194 37.6852 136.053 37.6852 136.194 37.6852ZM100.57 47.2528C100.57 47.3935 100.711 47.3935 100.711 47.5342C100.57 47.5342 100.428 47.3935 100.57 47.2528ZM89.6844 51.8959C89.6844 52.0366 89.8258 52.0366 89.8258 52.1773C89.6844 52.0366 89.6844 52.0366 89.6844 51.8959ZM74.5582 62.1671C74.4168 62.1671 74.4168 62.1671 74.5582 62.1671V62.1671ZM46.8503 75.815C46.9917 75.6743 46.9917 75.6743 46.8503 75.815C46.8503 75.6743 46.8503 75.6743 46.8503 75.815ZM49.3949 88.0559C49.2535 88.0559 49.2535 88.0559 49.3949 88.0559V88.0559ZM34.2686 104.659C34.41 104.659 34.5514 104.659 34.6927 104.659C34.6927 104.659 34.6927 104.659 34.6927 104.518C34.5514 104.518 34.41 104.518 34.2686 104.659ZM38.5096 105.925C38.5096 106.066 38.5096 106.066 38.5096 105.925V105.925ZM48.264 101.704C48.264 101.845 48.264 101.845 48.264 101.704V101.704ZM47.4157 117.322C47.4157 117.462 47.4157 117.462 47.4157 117.322C47.5571 117.462 47.4157 117.462 47.4157 117.322C47.5571 117.462 47.5571 117.462 47.4157 117.322C47.5571 117.322 47.5571 117.322 47.4157 117.322ZM45.0125 123.512C45.1539 123.372 45.1539 123.372 45.0125 123.512V123.512ZM45.578 139.693C45.7194 139.693 45.7194 139.693 45.578 139.693V139.693ZM54.06 140.397C54.2014 140.397 54.2014 140.397 54.2014 140.397H54.06ZM69.1862 141.663C69.469 141.663 69.6104 141.663 69.6104 141.944C69.3276 141.804 69.1862 141.804 69.1862 141.663ZM146.938 113.382C147.079 113.382 147.079 113.241 146.938 113.382V113.382ZM155.137 113.382H155.279C155.279 113.382 155.279 113.382 155.137 113.382ZM157.823 113.241L157.682 113.382C157.682 113.241 157.682 113.241 157.823 113.241ZM250.56 54.4285L250.701 54.2878C250.56 54.2878 250.56 54.4285 250.56 54.4285ZM248.157 45.1423C248.298 45.1423 248.439 45.1423 248.439 45.0016C248.439 44.8609 248.439 44.8609 248.439 45.0016H248.298C248.298 45.0016 248.298 45.1423 248.157 45.1423ZM246.884 27.9768C246.884 27.8361 246.884 27.8361 246.884 27.9768V27.9768ZM242.361 17.7057C242.502 17.7057 242.502 17.7057 242.361 17.7057V17.7057ZM210.977 17.1429C210.977 17.2836 210.977 17.2836 210.977 17.1429V17.1429ZM165.174 23.3337H165.033C165.033 23.3337 165.033 23.3337 165.033 23.4744C165.174 23.3337 165.174 23.3337 165.174 23.3337ZM116.544 40.6399C116.403 40.6399 116.403 40.6399 116.544 40.6399V40.6399ZM95.9046 49.2226C95.9046 49.0819 95.9046 49.0819 95.9046 49.2226V49.2226ZM43.3161 75.1115H43.1747C43.1747 75.2522 43.3161 75.2522 43.3161 75.1115ZM45.578 91.1514L45.7194 91.0107C45.578 91.1513 45.578 91.1514 45.578 91.1514ZM45.8607 91.0107C46.8503 90.7292 47.8399 90.3072 48.688 89.7443C48.5467 89.7443 48.4053 89.7443 48.264 89.6036C47.6985 90.3071 46.5676 90.4478 45.8607 91.0107ZM34.6927 102.829C34.9755 102.689 35.1168 102.829 35.2582 102.829C34.9755 102.829 34.8341 102.829 34.6927 102.829ZM40.4888 105.362C40.4888 105.221 40.3474 105.221 40.4888 105.362C40.3474 105.221 40.3474 105.221 40.4888 105.362C40.3474 105.362 40.3474 105.362 40.4888 105.362ZM56.4632 130.125C56.3219 130.125 56.3219 130.125 56.4632 130.125V130.125ZM42.3266 139.834C42.4679 139.834 42.4679 139.834 42.3266 139.834V139.834ZM187.793 103.674C187.793 103.533 187.793 103.533 187.793 103.674V103.674ZM203.626 95.5131C203.767 95.5131 203.767 95.5131 203.626 95.5131V95.5131ZM240.381 82.4279C240.523 82.4279 240.523 82.4279 240.381 82.4279V82.4279ZM247.167 20.9418C247.026 20.9418 247.026 21.0825 247.026 21.0825C247.026 21.2232 247.167 21.2232 247.167 21.3639C247.167 21.2232 247.167 21.0825 247.167 20.9418ZM238.12 9.54508C237.978 9.54508 237.978 9.54508 237.837 9.54508C237.837 9.68577 237.696 9.68578 237.696 9.68578C237.837 9.68578 237.978 9.68577 238.12 9.54508ZM168.991 18.8313C168.991 18.972 168.991 19.1127 168.708 19.1127C168.85 19.1127 168.991 18.972 168.991 18.8313ZM105.659 44.8609H105.8C105.8 44.7202 105.8 44.7202 105.659 44.8609C105.659 44.7202 105.659 44.7202 105.659 44.8609ZM65.3693 63.5741C65.5107 63.5741 65.6521 63.7148 65.7934 63.7148C65.6521 63.8555 65.5107 63.7148 65.3693 63.5741ZM26.6348 87.071C26.4934 87.071 26.4934 87.2117 26.3521 87.2117C26.4934 87.2117 26.4934 87.2117 26.6348 87.071ZM24.797 109.302C25.2212 109.02 25.5039 108.739 25.928 108.598H25.7866C25.3625 108.88 25.0798 109.02 24.797 109.302ZM21.1215 109.302H20.9801C20.9801 109.442 20.9801 109.442 21.1215 109.302ZM19.2837 116.055C19.4251 116.196 19.4251 116.055 19.2837 116.055C19.4251 116.196 19.2837 116.196 19.2837 116.055ZM45.7194 118.025C45.8607 118.025 45.8607 117.884 45.7194 118.025C45.8607 117.884 45.8607 117.884 45.7194 118.025ZM123.33 130.266C123.471 130.125 123.471 130.125 123.33 130.266V130.266ZM157.399 114.93C157.116 114.93 157.116 114.789 157.116 114.648C157.258 114.648 157.399 114.789 157.399 114.93ZM241.23 8.13808C241.088 8.13808 240.947 8.27877 240.947 8.27877H241.088C241.088 8.13806 241.23 8.13808 241.23 8.13808ZM193.165 7.71596C193.306 7.71596 193.306 7.71596 193.165 7.71596V7.71596ZM85.3021 56.8204C85.4434 56.6797 85.4434 56.6797 85.3021 56.8204V56.8204ZM77.8096 59.2123C77.8096 59.353 77.5269 59.4938 77.3855 59.4938C77.5269 59.4938 77.6683 59.353 77.8096 59.2123ZM45.2952 73.4231V73.5638C45.2952 73.7045 45.2952 73.7045 45.2952 73.4231C45.2952 73.5638 45.2952 73.5638 45.2952 73.4231ZM11.7913 95.091C11.6499 95.091 11.6499 95.091 11.7913 95.091V95.091ZM23.9488 115.493C23.8075 115.493 23.6661 115.493 23.6661 115.633C23.8075 115.633 23.9488 115.493 23.9488 115.493ZM48.8294 107.191C48.9708 107.191 48.8294 107.332 48.8294 107.332C49.1122 107.191 49.2535 107.191 49.5363 107.051C49.6776 107.051 49.819 106.91 49.9604 106.91L50.1017 106.769C50.1017 106.206 49.5363 106.347 49.1122 106.206C48.8294 106.206 48.5467 106.347 48.1226 106.347C47.8399 106.347 47.6985 106.488 47.4157 106.628C47.2744 106.347 47.5571 106.206 47.8399 106.066C47.6985 106.206 47.5571 106.347 47.4157 106.628C46.7089 106.91 46.1434 106.91 45.4366 107.051C44.5884 107.332 44.5884 107.613 45.7194 107.754C44.5884 108.035 44.023 108.176 43.3161 108.317L43.1747 108.176C42.7506 108.176 42.4679 108.035 41.9024 108.035C42.3266 107.613 42.892 107.754 43.1747 107.613C43.8816 107.332 44.5884 107.051 45.2952 106.769C45.4366 106.488 45.2952 106.347 45.0125 106.488C44.7298 106.488 44.3057 106.628 44.0229 106.628V106.488C44.3057 106.347 44.5884 106.347 44.8712 106.206C45.4366 106.206 46.0021 105.925 46.5675 105.784C46.7089 105.643 46.8503 105.503 47.133 105.362C46.9917 105.221 46.8503 105.221 46.7089 105.081C46.0021 105.221 45.4366 105.643 44.7298 105.643C45.1539 105.503 45.578 105.362 46.4262 104.94H46.2848C45.7193 105.221 45.2953 105.503 44.5884 105.643C44.023 105.925 43.4575 106.066 42.892 106.066C42.4679 106.206 42.1852 106.347 42.0438 105.925C41.9024 105.925 41.9024 105.925 41.7611 106.066C40.9129 106.769 41.0542 107.613 40.4888 108.458C40.4888 108.458 40.4888 108.458 40.6301 108.458C40.6301 109.02 40.0647 109.583 39.9233 110.146V110.287C40.0647 110.287 40.206 110.287 40.3474 110.427H40.4888C40.4888 110.427 40.3474 110.427 40.4888 110.146C41.4783 109.724 42.4679 109.302 43.5989 109.302C43.7402 109.302 43.7402 109.161 43.8816 109.161C44.0229 109.02 44.1643 109.02 44.3057 108.88C44.0229 108.88 43.8816 108.88 43.5989 108.88C44.023 108.458 44.4471 108.317 44.8712 108.458C45.0125 108.458 45.0125 108.317 45.1539 108.317C46.2848 107.895 47.4157 107.191 48.8294 107.191ZM32.7136 125.482C32.5722 125.482 32.5722 125.482 32.7136 125.482V125.482ZM49.5363 123.653C49.819 123.372 49.9604 123.512 50.2431 123.512C49.9604 123.372 49.6776 123.512 49.5363 123.653C49.3949 123.653 49.3949 123.653 49.5363 123.653ZM52.7877 130.829L52.9291 130.688C52.7877 130.688 52.7877 130.688 52.7877 130.829C52.7877 130.688 52.7877 130.688 52.7877 130.829ZM144.818 119.151C144.676 119.291 144.676 119.291 144.676 119.291C144.818 119.291 144.818 119.291 144.818 119.151ZM172.101 107.754C172.101 107.613 172.101 107.613 172.101 107.754H171.96C171.96 107.754 171.96 107.754 172.101 107.754ZM180.018 107.051C180.159 107.051 180.018 107.191 180.018 107.191C180.159 107.191 180.159 107.191 180.018 107.051C180.159 107.051 180.159 107.051 180.018 107.051ZM204.474 98.6085C204.616 98.6085 204.616 98.6085 204.474 98.6085V98.6085ZM247.167 77.5034C247.026 77.5034 247.167 77.3627 247.167 77.3627C247.167 77.5034 247.167 77.6441 247.167 77.7848C247.308 77.6441 247.308 77.5034 247.167 77.5034ZM253.953 53.1622C253.811 53.1622 253.811 53.1622 253.67 53.1622C253.811 53.1622 253.953 53.1622 253.953 53.1622ZM242.502 13.4847L242.643 13.344C242.643 13.4847 242.643 13.4847 242.502 13.4847ZM206.029 12.4998C206.029 12.4998 206.171 12.4998 206.171 12.3591L206.029 12.4998ZM167.578 17.9871C167.719 17.8464 167.719 17.8464 167.578 17.9871V17.9871ZM86.2916 52.1773C86.433 52.318 86.433 52.318 86.433 52.318C86.433 52.1773 86.2916 52.1773 86.2916 52.1773ZM83.3229 54.4285C83.4643 54.2878 83.6057 54.4285 83.6057 54.5692C83.4643 54.4285 83.3229 54.4285 83.3229 54.4285ZM41.7611 77.5034C41.9024 77.5034 41.9024 77.5034 41.7611 77.5034V77.5034ZM12.7809 91.1514C12.9222 91.1514 13.0636 91.0107 13.3463 91.0107C13.3463 91.0107 13.3463 91.0107 13.4877 90.87L13.3463 91.0107C13.0636 91.1513 12.9222 91.2921 12.7809 91.1514Z" fill="#2250D2"/>
</svg>
