<svg width="100" height="58" viewBox="0 0 100 58" fill="none" xmlns="http://www.w3.org/2000/svg">
<path d="M99.9999 57.4483C97.9273 55.5442 95.7893 53.6624 93.6512 51.8703C82.5681 42.6409 73.6231 36.4805 70.9396 34.666L71.5504 33.6355L49.1879 19.7914L48.9915 20.1274C48.9915 20.1274 45.1299 1.5117 33.4577 0.167607C21.8074 -1.17648 3.03508 6.1445 0.504291 1.55219C-2.0265 -3.04012 4.2228 36.0996 36.4031 39.1238C36.8612 39.1686 37.3194 39.2135 37.7557 39.2359L37.603 39.5047L45.0645 44.1194L59.9874 53.3488L60.4455 52.5647C61.7764 53.2592 65.2889 55.0513 69.9578 57.4483H99.9999Z" fill="black" fill-opacity="0.6"/>
</svg>
