<svg width="11" height="11" viewBox="0 0 11 11" fill="none" xmlns="http://www.w3.org/2000/svg">
<path d="M10.9105 8.22837L10.6743 8.03809C10.7628 7.87295 10.8404 7.70063 10.9105 7.52472V3.48952C10.0837 1.44679 8.0463 0 5.65456 0C2.532 0 0 2.46277 0 5.49994C0 8.53711 2.532 10.9999 5.65456 10.9999C7.14201 10.9999 8.4929 10.4398 9.50423 9.52796L10.9105 10.6552V8.22837ZM5.65456 9.23716C3.53225 9.23716 1.81596 7.56421 1.81596 5.50353C1.81596 3.43926 3.53594 1.76989 5.65456 1.76989C7.77686 1.76989 9.49685 3.44285 9.49685 5.50353C9.49685 7.56421 7.77686 9.23716 5.65456 9.23716Z" fill="#2D2D2D" fill-opacity="0.7"/>
</svg>
