<svg width="15" height="9" viewBox="0 0 15 9" fill="none" xmlns="http://www.w3.org/2000/svg">
<path d="M15 8.38162C14.6891 8.10381 14.3684 7.82927 14.0477 7.5678C12.3852 6.22124 11.0435 5.32245 10.6409 5.05771L10.7326 4.90737L7.37819 2.88753L7.34874 2.93655C7.34874 2.93655 6.76949 0.220554 5.01866 0.0244536C3.27111 -0.171647 0.455262 0.896474 0.0756437 0.226463C-0.303975 -0.443549 0.63342 5.26688 5.46046 5.70811C5.52919 5.71465 5.59791 5.72119 5.66336 5.72445L5.64045 5.76368L6.75967 6.43696L8.99811 7.78351L9.06683 7.66912C9.26646 7.77044 9.79335 8.03191 10.4937 8.38162H15Z" fill="black" fill-opacity="0.6"/>
</svg>
