<svg width="105" height="92" viewBox="0 0 105 92" fill="none" xmlns="http://www.w3.org/2000/svg">
<path d="M102.209 80.3079L73.559 56.7759C76.3578 51.4255 77.9608 45.3142 77.9608 38.848C77.9608 17.3954 60.5061 0 38.9804 0C17.4547 0 0 17.3954 0 38.848C0 60.3006 17.4547 77.6961 38.9804 77.6961C49.2344 77.6961 58.5469 73.7402 65.5186 67.2994L93.7616 90.5017C96.5605 92.8092 100.708 92.4035 103.023 89.6142L103.1 89.5127C105.415 86.7487 105.008 82.6155 102.209 80.3079ZM38.9549 65.2454C24.3246 65.2454 12.4931 53.4287 12.4931 38.8734C12.4931 24.2927 24.35 12.5013 38.9549 12.5013C53.5853 12.5013 65.4168 24.3181 65.4168 38.8734C65.4423 53.4287 53.5853 65.2454 38.9549 65.2454Z" fill="white"/>
</svg>
