<svg width="47" height="47" viewBox="0 0 47 47" fill="none" xmlns="http://www.w3.org/2000/svg">
<path d="M46.5 3.5C46.5 1.84315 45.1569 0.5 43.5 0.5H3.5C1.84315 0.5 0.5 1.84315 0.5 3.5V43.5C0.5 45.1569 1.84315 46.5 3.5 46.5H43.5C45.1569 46.5 46.5 45.1569 46.5 43.5V3.5Z" stroke="#25D366"/>
<path fill-rule="evenodd" clip-rule="evenodd" d="M31.55 15.3063C29.3938 13.15 26.5188 12 23.5 12C17.175 12 12 17.175 12 23.5C12 25.5125 12.575 27.525 13.5813 29.25L12 35L18.0375 33.4187C19.7625 34.2812 21.6313 34.8562 23.5 34.8562C29.825 34.8562 35 29.6812 35 23.3562C35 20.3375 33.7063 17.4625 31.55 15.3063ZM23.5 32.9875C21.775 32.9875 20.05 32.5563 18.6125 31.6938L18.325 31.55L14.7312 32.5562L15.7375 29.1062L15.45 28.675C14.4437 27.0938 14.0125 25.3688 14.0125 23.6438C14.0125 18.4688 18.325 14.1562 23.5 14.1562C26.0875 14.1562 28.3875 15.1625 30.2563 16.8875C32.125 18.7562 32.9875 21.0563 32.9875 23.6438C32.9875 28.675 28.8188 32.9875 23.5 32.9875ZM28.675 25.8C28.3875 25.6563 26.95 24.9375 26.6625 24.9375C26.375 24.7937 26.2312 24.7938 26.0875 25.0813C25.9437 25.3688 25.3688 25.9437 25.225 26.2312C25.0813 26.375 24.9375 26.375 24.65 26.375C24.3625 26.2312 23.5 25.9438 22.35 24.9375C21.4875 24.2188 20.9125 23.2125 20.7688 22.925C20.625 22.6375 20.7688 22.4937 20.9125 22.35C21.0563 22.2063 21.2 22.0625 21.3438 21.9187C21.4875 21.775 21.4875 21.6313 21.6313 21.4875C21.775 21.3438 21.6313 21.2 21.6313 21.0563C21.6313 20.9125 21.0563 19.475 20.7688 18.9C20.625 18.4688 20.3375 18.4688 20.1938 18.4688C20.05 18.4688 19.9062 18.4688 19.6187 18.4688C19.475 18.4688 19.1875 18.4687 18.9 18.7562C18.6125 19.0437 17.8938 19.7625 17.8938 21.2C17.8938 22.6375 18.9 23.9312 19.0437 24.2188C19.1875 24.3625 21.0562 27.3813 23.9312 28.5312C26.375 29.5375 26.8063 29.25 27.3813 29.25C27.9563 29.25 29.1063 28.5312 29.25 27.9563C29.5375 27.2375 29.5375 26.6625 29.3938 26.6625C29.25 25.9438 28.9625 25.9438 28.675 25.8Z" fill="white"/>
</svg>
