<svg width="24" height="24" viewBox="0 0 24 24" fill="none" xmlns="http://www.w3.org/2000/svg">
<path d="M19.0499 4.91006C18.1331 3.98399 17.0411 3.24973 15.8376 2.75011C14.634 2.25049 13.3431 1.99553 12.04 2.00006C6.57996 2.00006 2.12996 6.45006 2.12996 11.9101C2.12996 13.6601 2.58996 15.3601 3.44996 16.8601L2.04996 22.0001L7.29996 20.6201C8.74999 21.41 10.3799 21.83 12.04 21.83C17.5 21.83 21.95 17.3801 21.95 11.9201C21.95 9.27007 20.92 6.78006 19.0499 4.91006ZM12.04 20.15C10.5599 20.15 9.10999 19.7501 7.83996 19.0001L7.53996 18.8201L4.41996 19.64L5.24996 16.6001L5.04996 16.2901C4.22771 14.977 3.7911 13.4593 3.78996 11.9101C3.78996 7.37006 7.48996 3.67006 12.0299 3.67006C14.23 3.67006 16.3 4.53006 17.8499 6.09006C18.6174 6.85403 19.2256 7.76273 19.6394 8.7635C20.053 9.76421 20.264 10.8372 20.26 11.9201C20.2799 16.46 16.58 20.15 12.04 20.15ZM16.5599 13.9901C16.31 13.8701 15.0899 13.2701 14.87 13.1801C14.6399 13.1 14.48 13.0601 14.3099 13.3001C14.14 13.55 13.67 14.1101 13.5299 14.27C13.39 14.4401 13.24 14.4601 12.9899 14.33C12.74 14.21 11.9399 13.94 11 13.1C10.2599 12.44 9.76999 11.63 9.61999 11.3801C9.47993 11.1301 9.59993 11 9.72996 10.8701C9.83993 10.76 9.97999 10.58 10.1 10.4401C10.22 10.3001 10.27 10.19 10.3499 10.0301C10.43 9.86004 10.39 9.72007 10.33 9.60007C10.27 9.48007 9.76999 8.26006 9.56993 7.76006C9.36996 7.28006 9.15996 7.34006 9.00996 7.33006H8.52996C8.35996 7.33006 8.09995 7.39006 7.86996 7.64006C7.64995 7.89006 7.00996 8.49006 7.00996 9.71004C7.00996 10.9301 7.89996 12.11 8.01996 12.2701C8.13996 12.44 9.76999 14.9401 12.25 16.01C12.8399 16.2701 13.3 16.4201 13.66 16.5301C14.2499 16.7201 14.7899 16.6901 15.22 16.6301C15.7 16.5601 16.69 16.0301 16.8899 15.4501C17.0999 14.87 17.0999 14.3801 17.03 14.27C16.96 14.1601 16.81 14.1101 16.5599 13.9901Z" fill="#FF7636"/>
</svg>
